<mxfile host="app.diagrams.net" agent="Mozilla/5.0 (Windows NT 10.0; Win64; x64) AppleWebKit/537.36 (KHTML, like Gecko) Chrome/135.0.0.0 Safari/537.36" version="26.2.14">
  <diagram name="Page-1" id="yiMu567YP2cyCcdc6nh2">
    <mxGraphModel dx="3333" dy="1003" grid="1" gridSize="10" guides="1" tooltips="1" connect="1" arrows="1" fold="1" page="1" pageScale="1" pageWidth="850" pageHeight="1100" math="0" shadow="0">
      <root>
        <mxCell id="0" />
        <mxCell id="1" parent="0" />
        <mxCell id="vtXWzLsRKn1HHXiiLrbu-119" style="edgeStyle=orthogonalEdgeStyle;rounded=0;orthogonalLoop=1;jettySize=auto;html=1;exitX=1;exitY=0.5;exitDx=0;exitDy=0;entryX=0;entryY=0.5;entryDx=0;entryDy=0;" parent="1" source="vtXWzLsRKn1HHXiiLrbu-110" target="vtXWzLsRKn1HHXiiLrbu-113" edge="1">
          <mxGeometry relative="1" as="geometry" />
        </mxCell>
        <mxCell id="vtXWzLsRKn1HHXiiLrbu-110" value="Program Counter" style="rounded=0;whiteSpace=wrap;html=1;" parent="1" vertex="1">
          <mxGeometry x="170" y="2260" width="60" height="190" as="geometry" />
        </mxCell>
        <mxCell id="vtXWzLsRKn1HHXiiLrbu-111" value="Adder" style="html=1;shadow=0;dashed=0;align=center;verticalAlign=middle;shape=mxgraph.arrows2.arrow;dy=0;dx=30;notch=23;" parent="1" vertex="1">
          <mxGeometry x="400" y="1960" width="140" height="100" as="geometry" />
        </mxCell>
        <mxCell id="vtXWzLsRKn1HHXiiLrbu-112" value="" style="rounded=1;whiteSpace=wrap;html=1;rotation=90;" parent="1" vertex="1">
          <mxGeometry x="370" y="2410" width="690" height="60" as="geometry" />
        </mxCell>
        <mxCell id="vtXWzLsRKn1HHXiiLrbu-113" value="Instruction Memory" style="rounded=0;whiteSpace=wrap;html=1;" parent="1" vertex="1">
          <mxGeometry x="370" y="2260" width="170" height="190" as="geometry" />
        </mxCell>
        <mxCell id="vtXWzLsRKn1HHXiiLrbu-115" value="read address" style="text;html=1;align=center;verticalAlign=middle;resizable=0;points=[];autosize=1;strokeColor=none;fillColor=none;" parent="1" vertex="1">
          <mxGeometry x="390" y="2290" width="90" height="30" as="geometry" />
        </mxCell>
        <mxCell id="vtXWzLsRKn1HHXiiLrbu-116" value="instructions [31:0]" style="text;html=1;align=center;verticalAlign=middle;resizable=0;points=[];autosize=1;strokeColor=none;fillColor=none;" parent="1" vertex="1">
          <mxGeometry x="410" y="2400" width="120" height="30" as="geometry" />
        </mxCell>
        <mxCell id="vtXWzLsRKn1HHXiiLrbu-117" style="edgeStyle=orthogonalEdgeStyle;rounded=0;orthogonalLoop=1;jettySize=auto;html=1;exitX=1;exitY=0.75;exitDx=0;exitDy=0;entryX=0.445;entryY=0.917;entryDx=0;entryDy=0;entryPerimeter=0;" parent="1" source="vtXWzLsRKn1HHXiiLrbu-113" target="vtXWzLsRKn1HHXiiLrbu-112" edge="1">
          <mxGeometry relative="1" as="geometry">
            <mxPoint x="680" y="2402" as="targetPoint" />
          </mxGeometry>
        </mxCell>
        <mxCell id="vtXWzLsRKn1HHXiiLrbu-118" value="&lt;font style=&quot;font-size: 19px;&quot;&gt;IF/ID&lt;/font&gt;" style="text;html=1;align=center;verticalAlign=middle;whiteSpace=wrap;rounded=0;" parent="1" vertex="1">
          <mxGeometry x="685" y="2070" width="60" height="30" as="geometry" />
        </mxCell>
        <mxCell id="vtXWzLsRKn1HHXiiLrbu-120" style="edgeStyle=orthogonalEdgeStyle;rounded=0;orthogonalLoop=1;jettySize=auto;html=1;entryX=0.071;entryY=0.3;entryDx=0;entryDy=0;entryPerimeter=0;" parent="1" target="vtXWzLsRKn1HHXiiLrbu-111" edge="1">
          <mxGeometry relative="1" as="geometry">
            <mxPoint x="409" y="1860" as="targetPoint" />
            <mxPoint x="251" y="2353" as="sourcePoint" />
            <Array as="points">
              <mxPoint x="251" y="1990" />
            </Array>
          </mxGeometry>
        </mxCell>
        <mxCell id="vtXWzLsRKn1HHXiiLrbu-121" value="" style="endArrow=classic;html=1;rounded=0;" parent="1" edge="1">
          <mxGeometry width="50" height="50" relative="1" as="geometry">
            <mxPoint x="310" y="2030" as="sourcePoint" />
            <mxPoint x="420" y="2030.33" as="targetPoint" />
          </mxGeometry>
        </mxCell>
        <mxCell id="vtXWzLsRKn1HHXiiLrbu-122" value="&lt;font style=&quot;font-size: 22px;&quot;&gt;4&lt;/font&gt;" style="text;html=1;align=center;verticalAlign=middle;whiteSpace=wrap;rounded=0;" parent="1" vertex="1">
          <mxGeometry x="270" y="2010" width="60" height="30" as="geometry" />
        </mxCell>
        <mxCell id="vtXWzLsRKn1HHXiiLrbu-123" value="Registers" style="rounded=0;whiteSpace=wrap;html=1;" parent="1" vertex="1">
          <mxGeometry x="1050" y="2290" width="170" height="190" as="geometry" />
        </mxCell>
        <mxCell id="vtXWzLsRKn1HHXiiLrbu-125" value="" style="endArrow=none;html=1;rounded=0;" parent="1" edge="1">
          <mxGeometry width="50" height="50" relative="1" as="geometry">
            <mxPoint x="740" y="2400" as="sourcePoint" />
            <mxPoint x="920" y="2400" as="targetPoint" />
          </mxGeometry>
        </mxCell>
        <mxCell id="vtXWzLsRKn1HHXiiLrbu-126" value="" style="endArrow=none;html=1;rounded=0;" parent="1" edge="1">
          <mxGeometry width="50" height="50" relative="1" as="geometry">
            <mxPoint x="920" y="2720" as="sourcePoint" />
            <mxPoint x="920" y="2080" as="targetPoint" />
          </mxGeometry>
        </mxCell>
        <mxCell id="vtXWzLsRKn1HHXiiLrbu-127" value="" style="endArrow=classic;html=1;rounded=0;" parent="1" edge="1">
          <mxGeometry width="50" height="50" relative="1" as="geometry">
            <mxPoint x="920" y="2320" as="sourcePoint" />
            <mxPoint x="1050" y="2320" as="targetPoint" />
          </mxGeometry>
        </mxCell>
        <mxCell id="vtXWzLsRKn1HHXiiLrbu-128" value="" style="endArrow=classic;html=1;rounded=0;" parent="1" edge="1">
          <mxGeometry width="50" height="50" relative="1" as="geometry">
            <mxPoint x="920" y="2354.44" as="sourcePoint" />
            <mxPoint x="1050" y="2354.44" as="targetPoint" />
          </mxGeometry>
        </mxCell>
        <mxCell id="vtXWzLsRKn1HHXiiLrbu-129" value="read register 1" style="text;html=1;align=center;verticalAlign=middle;resizable=0;points=[];autosize=1;strokeColor=none;fillColor=none;" parent="1" vertex="1">
          <mxGeometry x="1050" y="2310" width="100" height="30" as="geometry" />
        </mxCell>
        <mxCell id="vtXWzLsRKn1HHXiiLrbu-130" value="read register 2" style="text;html=1;align=center;verticalAlign=middle;resizable=0;points=[];autosize=1;strokeColor=none;fillColor=none;" parent="1" vertex="1">
          <mxGeometry x="1050" y="2340" width="100" height="30" as="geometry" />
        </mxCell>
        <mxCell id="vtXWzLsRKn1HHXiiLrbu-131" value="write register" style="text;html=1;align=center;verticalAlign=middle;resizable=0;points=[];autosize=1;strokeColor=none;fillColor=none;" parent="1" vertex="1">
          <mxGeometry x="1045" y="2410" width="90" height="30" as="geometry" />
        </mxCell>
        <mxCell id="vtXWzLsRKn1HHXiiLrbu-132" value="write data" style="text;html=1;align=center;verticalAlign=middle;resizable=0;points=[];autosize=1;strokeColor=none;fillColor=none;" parent="1" vertex="1">
          <mxGeometry x="1050" y="2440" width="80" height="30" as="geometry" />
        </mxCell>
        <mxCell id="vtXWzLsRKn1HHXiiLrbu-133" value="read data 1" style="text;html=1;align=center;verticalAlign=middle;resizable=0;points=[];autosize=1;strokeColor=none;fillColor=none;" parent="1" vertex="1">
          <mxGeometry x="1140" y="2310" width="80" height="30" as="geometry" />
        </mxCell>
        <mxCell id="vtXWzLsRKn1HHXiiLrbu-134" value="read data 2" style="text;html=1;align=center;verticalAlign=middle;resizable=0;points=[];autosize=1;strokeColor=none;fillColor=none;fontSize=12;" parent="1" vertex="1">
          <mxGeometry x="1140" y="2410" width="80" height="30" as="geometry" />
        </mxCell>
        <mxCell id="vtXWzLsRKn1HHXiiLrbu-135" value="" style="rounded=1;whiteSpace=wrap;html=1;rotation=90;" parent="1" vertex="1">
          <mxGeometry x="1075" y="2410" width="690" height="60" as="geometry" />
        </mxCell>
        <mxCell id="vtXWzLsRKn1HHXiiLrbu-136" value="EX" style="rounded=0;whiteSpace=wrap;html=1;fillColor=#15C5FF;" parent="1" vertex="1">
          <mxGeometry x="1390" y="2060" width="60" height="40" as="geometry" />
        </mxCell>
        <mxCell id="vtXWzLsRKn1HHXiiLrbu-137" value="WB" style="rounded=0;whiteSpace=wrap;html=1;fillColor=#15C5FF;" parent="1" vertex="1">
          <mxGeometry x="1390" y="1980" width="60" height="40" as="geometry" />
        </mxCell>
        <mxCell id="vtXWzLsRKn1HHXiiLrbu-138" value="MEM" style="rounded=0;whiteSpace=wrap;html=1;fillColor=#15C5FF;" parent="1" vertex="1">
          <mxGeometry x="1390" y="2020" width="60" height="40" as="geometry" />
        </mxCell>
        <mxCell id="vtXWzLsRKn1HHXiiLrbu-139" value="&lt;font style=&quot;font-size: 18px;&quot;&gt;ID/EX&lt;/font&gt;" style="text;html=1;align=center;verticalAlign=middle;whiteSpace=wrap;rounded=0;" parent="1" vertex="1">
          <mxGeometry x="1390" y="1950" width="60" height="30" as="geometry" />
        </mxCell>
        <mxCell id="vtXWzLsRKn1HHXiiLrbu-140" value="" style="endArrow=classic;html=1;rounded=0;" parent="1" edge="1">
          <mxGeometry width="50" height="50" relative="1" as="geometry">
            <mxPoint x="250" y="2160" as="sourcePoint" />
            <mxPoint x="680" y="2160" as="targetPoint" />
          </mxGeometry>
        </mxCell>
        <mxCell id="vtXWzLsRKn1HHXiiLrbu-141" value="" style="endArrow=classic;html=1;rounded=0;entryX=0.093;entryY=0.967;entryDx=0;entryDy=0;entryPerimeter=0;exitX=0.094;exitY=0.083;exitDx=0;exitDy=0;exitPerimeter=0;" parent="1" source="vtXWzLsRKn1HHXiiLrbu-112" target="vtXWzLsRKn1HHXiiLrbu-135" edge="1">
          <mxGeometry width="50" height="50" relative="1" as="geometry">
            <mxPoint x="750" y="2160" as="sourcePoint" />
            <mxPoint x="800" y="2110" as="targetPoint" />
          </mxGeometry>
        </mxCell>
        <mxCell id="vtXWzLsRKn1HHXiiLrbu-142" value="" style="endArrow=classic;html=1;rounded=0;entryX=0.356;entryY=1.064;entryDx=0;entryDy=0;entryPerimeter=0;" parent="1" target="vtXWzLsRKn1HHXiiLrbu-135" edge="1">
          <mxGeometry width="50" height="50" relative="1" as="geometry">
            <mxPoint x="1220" y="2340" as="sourcePoint" />
            <mxPoint x="1270" y="2290" as="targetPoint" />
          </mxGeometry>
        </mxCell>
        <mxCell id="vtXWzLsRKn1HHXiiLrbu-143" value="" style="endArrow=classic;html=1;rounded=0;" parent="1" edge="1">
          <mxGeometry width="50" height="50" relative="1" as="geometry">
            <mxPoint x="1220" y="2430" as="sourcePoint" />
            <mxPoint x="1386" y="2430" as="targetPoint" />
          </mxGeometry>
        </mxCell>
        <mxCell id="vtXWzLsRKn1HHXiiLrbu-144" value="" style="endArrow=classic;html=1;rounded=0;entryX=0.674;entryY=1;entryDx=0;entryDy=0;entryPerimeter=0;" parent="1" target="vtXWzLsRKn1HHXiiLrbu-135" edge="1">
          <mxGeometry width="50" height="50" relative="1" as="geometry">
            <mxPoint x="920" y="2560" as="sourcePoint" />
            <mxPoint x="970" y="2510" as="targetPoint" />
          </mxGeometry>
        </mxCell>
        <mxCell id="vtXWzLsRKn1HHXiiLrbu-145" value="function7,function3" style="text;html=1;align=center;verticalAlign=middle;whiteSpace=wrap;rounded=0;" parent="1" vertex="1">
          <mxGeometry x="1090" y="2530" width="130" height="30" as="geometry" />
        </mxCell>
        <mxCell id="vtXWzLsRKn1HHXiiLrbu-146" value="Immediate Generator" style="ellipse;whiteSpace=wrap;html=1;" parent="1" vertex="1">
          <mxGeometry x="1075" y="2590" width="140" height="80" as="geometry" />
        </mxCell>
        <mxCell id="vtXWzLsRKn1HHXiiLrbu-147" value="" style="endArrow=classic;html=1;rounded=0;entryX=0.037;entryY=0.621;entryDx=0;entryDy=0;entryPerimeter=0;" parent="1" target="vtXWzLsRKn1HHXiiLrbu-146" edge="1">
          <mxGeometry width="50" height="50" relative="1" as="geometry">
            <mxPoint x="920" y="2640" as="sourcePoint" />
            <mxPoint x="970" y="2590" as="targetPoint" />
          </mxGeometry>
        </mxCell>
        <mxCell id="vtXWzLsRKn1HHXiiLrbu-148" value="" style="endArrow=classic;html=1;rounded=0;" parent="1" edge="1">
          <mxGeometry width="50" height="50" relative="1" as="geometry">
            <mxPoint x="1215" y="2640" as="sourcePoint" />
            <mxPoint x="1390" y="2640" as="targetPoint" />
          </mxGeometry>
        </mxCell>
        <mxCell id="vtXWzLsRKn1HHXiiLrbu-149" value="" style="endArrow=classic;html=1;rounded=0;entryX=0.674;entryY=1;entryDx=0;entryDy=0;entryPerimeter=0;" parent="1" edge="1">
          <mxGeometry width="50" height="50" relative="1" as="geometry">
            <mxPoint x="917" y="2720" as="sourcePoint" />
            <mxPoint x="1387" y="2720" as="targetPoint" />
          </mxGeometry>
        </mxCell>
        <mxCell id="vtXWzLsRKn1HHXiiLrbu-150" value="" style="endArrow=classic;html=1;rounded=0;entryX=0.98;entryY=0.928;entryDx=0;entryDy=0;entryPerimeter=0;exitX=0.978;exitY=0.016;exitDx=0;exitDy=0;exitPerimeter=0;" parent="1" source="vtXWzLsRKn1HHXiiLrbu-112" target="vtXWzLsRKn1HHXiiLrbu-135" edge="1">
          <mxGeometry width="50" height="50" relative="1" as="geometry">
            <mxPoint x="740" y="2780" as="sourcePoint" />
            <mxPoint x="790" y="2730" as="targetPoint" />
          </mxGeometry>
        </mxCell>
        <mxCell id="vtXWzLsRKn1HHXiiLrbu-152" value="" style="endArrow=none;html=1;rounded=0;" parent="1" edge="1">
          <mxGeometry width="50" height="50" relative="1" as="geometry">
            <mxPoint x="540" y="2010" as="sourcePoint" />
            <mxPoint x="600" y="2010" as="targetPoint" />
          </mxGeometry>
        </mxCell>
        <mxCell id="vtXWzLsRKn1HHXiiLrbu-153" value="" style="endArrow=classic;html=1;rounded=0;" parent="1" edge="1">
          <mxGeometry width="50" height="50" relative="1" as="geometry">
            <mxPoint x="600" y="2010" as="sourcePoint" />
            <mxPoint x="600" y="2770" as="targetPoint" />
          </mxGeometry>
        </mxCell>
        <mxCell id="vtXWzLsRKn1HHXiiLrbu-154" value="" style="endArrow=classic;html=1;rounded=0;entryX=0.977;entryY=1.024;entryDx=0;entryDy=0;entryPerimeter=0;" parent="1" target="vtXWzLsRKn1HHXiiLrbu-112" edge="1">
          <mxGeometry width="50" height="50" relative="1" as="geometry">
            <mxPoint x="600" y="2770" as="sourcePoint" />
            <mxPoint x="700" y="2770" as="targetPoint" />
          </mxGeometry>
        </mxCell>
        <mxCell id="vtXWzLsRKn1HHXiiLrbu-155" value="" style="rounded=1;whiteSpace=wrap;html=1;rotation=90;" parent="1" vertex="1">
          <mxGeometry x="1850" y="2420" width="690" height="60" as="geometry" />
        </mxCell>
        <mxCell id="vtXWzLsRKn1HHXiiLrbu-156" value="WB" style="rounded=0;whiteSpace=wrap;html=1;fillColor=#15C5FF;" parent="1" vertex="1">
          <mxGeometry x="2165" y="2030" width="60" height="40" as="geometry" />
        </mxCell>
        <mxCell id="vtXWzLsRKn1HHXiiLrbu-157" value="MEM" style="rounded=0;whiteSpace=wrap;html=1;fillColor=#15C5FF;" parent="1" vertex="1">
          <mxGeometry x="2165" y="2070" width="60" height="40" as="geometry" />
        </mxCell>
        <mxCell id="vtXWzLsRKn1HHXiiLrbu-158" value="&lt;font style=&quot;font-size: 19px;&quot;&gt;EX/MEM&lt;/font&gt;" style="text;html=1;align=center;verticalAlign=middle;whiteSpace=wrap;rounded=0;" parent="1" vertex="1">
          <mxGeometry x="2165" y="2000" width="60" height="30" as="geometry" />
        </mxCell>
        <mxCell id="vtXWzLsRKn1HHXiiLrbu-205" style="edgeStyle=orthogonalEdgeStyle;rounded=0;orthogonalLoop=1;jettySize=auto;html=1;exitX=1;exitY=0.5;exitDx=0;exitDy=0;exitPerimeter=0;" parent="1" source="vtXWzLsRKn1HHXiiLrbu-159" edge="1">
          <mxGeometry relative="1" as="geometry">
            <mxPoint x="2160" y="2349.6666666666665" as="targetPoint" />
          </mxGeometry>
        </mxCell>
        <mxCell id="vtXWzLsRKn1HHXiiLrbu-159" value="ALU" style="html=1;shadow=0;dashed=0;align=center;verticalAlign=middle;shape=mxgraph.arrows2.arrow;dy=0;dx=30;notch=23;" parent="1" vertex="1">
          <mxGeometry x="1890" y="2300" width="140" height="100" as="geometry" />
        </mxCell>
        <mxCell id="vtXWzLsRKn1HHXiiLrbu-160" value="Shift Left 1" style="ellipse;whiteSpace=wrap;html=1;" parent="1" vertex="1">
          <mxGeometry x="1655" y="2190" width="110" height="80" as="geometry" />
        </mxCell>
        <mxCell id="vtXWzLsRKn1HHXiiLrbu-161" value="Mux&amp;nbsp;" style="strokeWidth=2;html=1;shape=mxgraph.flowchart.terminator;whiteSpace=wrap;rotation=90;" parent="1" vertex="1">
          <mxGeometry x="1765" y="2120" width="60" height="15" as="geometry" />
        </mxCell>
        <mxCell id="vtXWzLsRKn1HHXiiLrbu-208" style="edgeStyle=orthogonalEdgeStyle;rounded=0;orthogonalLoop=1;jettySize=auto;html=1;exitX=1;exitY=0.5;exitDx=0;exitDy=0;exitPerimeter=0;entryX=0.25;entryY=1;entryDx=0;entryDy=0;" parent="1" source="vtXWzLsRKn1HHXiiLrbu-162" target="vtXWzLsRKn1HHXiiLrbu-155" edge="1">
          <mxGeometry relative="1" as="geometry" />
        </mxCell>
        <mxCell id="vtXWzLsRKn1HHXiiLrbu-162" value="Adder" style="html=1;shadow=0;dashed=0;align=center;verticalAlign=middle;shape=mxgraph.arrows2.arrow;dy=0;dx=30;notch=23;" parent="1" vertex="1">
          <mxGeometry x="1850" y="1975" width="140" height="100" as="geometry" />
        </mxCell>
        <mxCell id="vtXWzLsRKn1HHXiiLrbu-163" value="" style="endArrow=none;html=1;rounded=0;" parent="1" edge="1">
          <mxGeometry width="50" height="50" relative="1" as="geometry">
            <mxPoint x="1450" y="2160" as="sourcePoint" />
            <mxPoint x="1670" y="2160" as="targetPoint" />
          </mxGeometry>
        </mxCell>
        <mxCell id="vtXWzLsRKn1HHXiiLrbu-164" value="" style="endArrow=none;html=1;rounded=0;" parent="1" edge="1">
          <mxGeometry width="50" height="50" relative="1" as="geometry">
            <mxPoint x="1670" y="2160" as="sourcePoint" />
            <mxPoint x="1670" y="2000" as="targetPoint" />
          </mxGeometry>
        </mxCell>
        <mxCell id="vtXWzLsRKn1HHXiiLrbu-165" value="" style="endArrow=classic;html=1;rounded=0;entryX=0.061;entryY=0.238;entryDx=0;entryDy=0;entryPerimeter=0;" parent="1" target="vtXWzLsRKn1HHXiiLrbu-162" edge="1">
          <mxGeometry width="50" height="50" relative="1" as="geometry">
            <mxPoint x="1670" y="2000" as="sourcePoint" />
            <mxPoint x="1720" y="1950" as="targetPoint" />
          </mxGeometry>
        </mxCell>
        <mxCell id="vtXWzLsRKn1HHXiiLrbu-168" value="" style="endArrow=none;html=1;rounded=0;" parent="1" edge="1">
          <mxGeometry width="50" height="50" relative="1" as="geometry">
            <mxPoint x="1800" y="2125" as="sourcePoint" />
            <mxPoint x="1830" y="2125" as="targetPoint" />
          </mxGeometry>
        </mxCell>
        <mxCell id="vtXWzLsRKn1HHXiiLrbu-169" value="" style="endArrow=none;html=1;rounded=0;" parent="1" edge="1">
          <mxGeometry width="50" height="50" relative="1" as="geometry">
            <mxPoint x="1830" y="2125" as="sourcePoint" />
            <mxPoint x="1830" y="2060" as="targetPoint" />
          </mxGeometry>
        </mxCell>
        <mxCell id="vtXWzLsRKn1HHXiiLrbu-170" value="" style="endArrow=classic;html=1;rounded=0;entryX=0.045;entryY=0.845;entryDx=0;entryDy=0;entryPerimeter=0;" parent="1" target="vtXWzLsRKn1HHXiiLrbu-162" edge="1">
          <mxGeometry width="50" height="50" relative="1" as="geometry">
            <mxPoint x="1830" y="2060" as="sourcePoint" />
            <mxPoint x="1860" y="2030" as="targetPoint" />
          </mxGeometry>
        </mxCell>
        <mxCell id="vtXWzLsRKn1HHXiiLrbu-171" value="" style="endArrow=none;html=1;rounded=0;" parent="1" edge="1">
          <mxGeometry width="50" height="50" relative="1" as="geometry">
            <mxPoint x="1450" y="2640" as="sourcePoint" />
            <mxPoint x="1640" y="2640" as="targetPoint" />
          </mxGeometry>
        </mxCell>
        <mxCell id="vtXWzLsRKn1HHXiiLrbu-172" value="" style="endArrow=none;html=1;rounded=0;" parent="1" edge="1">
          <mxGeometry width="50" height="50" relative="1" as="geometry">
            <mxPoint x="1638.75" y="2640" as="sourcePoint" />
            <mxPoint x="1640" y="2240" as="targetPoint" />
          </mxGeometry>
        </mxCell>
        <mxCell id="vtXWzLsRKn1HHXiiLrbu-173" value="" style="endArrow=classic;html=1;rounded=0;" parent="1" edge="1">
          <mxGeometry width="50" height="50" relative="1" as="geometry">
            <mxPoint x="1640" y="2240" as="sourcePoint" />
            <mxPoint x="1660" y="2240" as="targetPoint" />
          </mxGeometry>
        </mxCell>
        <mxCell id="vtXWzLsRKn1HHXiiLrbu-175" value="" style="endArrow=none;html=1;rounded=0;" parent="1" edge="1">
          <mxGeometry width="50" height="50" relative="1" as="geometry">
            <mxPoint x="1765" y="2240" as="sourcePoint" />
            <mxPoint x="1780" y="2240" as="targetPoint" />
          </mxGeometry>
        </mxCell>
        <mxCell id="vtXWzLsRKn1HHXiiLrbu-176" value="" style="endArrow=none;html=1;rounded=0;" parent="1" edge="1">
          <mxGeometry width="50" height="50" relative="1" as="geometry">
            <mxPoint x="1780" y="2240" as="sourcePoint" />
            <mxPoint x="1780" y="2150" as="targetPoint" />
          </mxGeometry>
        </mxCell>
        <mxCell id="vtXWzLsRKn1HHXiiLrbu-177" value="" style="endArrow=classic;html=1;rounded=0;entryX=0.89;entryY=0.89;entryDx=0;entryDy=0;entryPerimeter=0;" parent="1" target="vtXWzLsRKn1HHXiiLrbu-161" edge="1">
          <mxGeometry width="50" height="50" relative="1" as="geometry">
            <mxPoint x="1780" y="2150" as="sourcePoint" />
            <mxPoint x="1810" y="2150" as="targetPoint" />
          </mxGeometry>
        </mxCell>
        <mxCell id="vtXWzLsRKn1HHXiiLrbu-178" value="Shift Left 12" style="ellipse;whiteSpace=wrap;html=1;" parent="1" vertex="1">
          <mxGeometry x="1765" y="2520" width="110" height="80" as="geometry" />
        </mxCell>
        <mxCell id="vtXWzLsRKn1HHXiiLrbu-181" value="" style="endArrow=classic;html=1;rounded=0;" parent="1" edge="1">
          <mxGeometry width="50" height="50" relative="1" as="geometry">
            <mxPoint x="1640" y="2560" as="sourcePoint" />
            <mxPoint x="1760" y="2560" as="targetPoint" />
          </mxGeometry>
        </mxCell>
        <mxCell id="vtXWzLsRKn1HHXiiLrbu-182" value="" style="endArrow=none;html=1;rounded=0;" parent="1" edge="1">
          <mxGeometry width="50" height="50" relative="1" as="geometry">
            <mxPoint x="1820" y="2480" as="sourcePoint" />
            <mxPoint x="1820" y="2180" as="targetPoint" />
          </mxGeometry>
        </mxCell>
        <mxCell id="vtXWzLsRKn1HHXiiLrbu-183" value="" style="endArrow=none;html=1;rounded=0;" parent="1" edge="1">
          <mxGeometry width="50" height="50" relative="1" as="geometry">
            <mxPoint x="1750" y="2180" as="sourcePoint" />
            <mxPoint x="1820" y="2180" as="targetPoint" />
          </mxGeometry>
        </mxCell>
        <mxCell id="vtXWzLsRKn1HHXiiLrbu-184" value="" style="endArrow=none;html=1;rounded=0;" parent="1" edge="1">
          <mxGeometry width="50" height="50" relative="1" as="geometry">
            <mxPoint x="1750" y="2180" as="sourcePoint" />
            <mxPoint x="1750" y="2120" as="targetPoint" />
          </mxGeometry>
        </mxCell>
        <mxCell id="vtXWzLsRKn1HHXiiLrbu-185" value="" style="endArrow=classic;html=1;rounded=0;entryX=0.364;entryY=1.132;entryDx=0;entryDy=0;entryPerimeter=0;" parent="1" target="vtXWzLsRKn1HHXiiLrbu-161" edge="1">
          <mxGeometry width="50" height="50" relative="1" as="geometry">
            <mxPoint x="1750" y="2120" as="sourcePoint" />
            <mxPoint x="1780" y="2120" as="targetPoint" />
          </mxGeometry>
        </mxCell>
        <mxCell id="vtXWzLsRKn1HHXiiLrbu-186" value="" style="endArrow=classic;html=1;rounded=0;" parent="1" edge="1">
          <mxGeometry width="50" height="50" relative="1" as="geometry">
            <mxPoint x="1875" y="2560" as="sourcePoint" />
            <mxPoint x="2160" y="2560" as="targetPoint" />
          </mxGeometry>
        </mxCell>
        <mxCell id="vtXWzLsRKn1HHXiiLrbu-187" value="" style="endArrow=none;html=1;rounded=0;" parent="1" edge="1">
          <mxGeometry width="50" height="50" relative="1" as="geometry">
            <mxPoint x="1920" y="2560" as="sourcePoint" />
            <mxPoint x="1920" y="2480" as="targetPoint" />
          </mxGeometry>
        </mxCell>
        <mxCell id="vtXWzLsRKn1HHXiiLrbu-188" value="" style="endArrow=none;html=1;rounded=0;" parent="1" edge="1">
          <mxGeometry width="50" height="50" relative="1" as="geometry">
            <mxPoint x="1820" y="2480" as="sourcePoint" />
            <mxPoint x="1920" y="2480" as="targetPoint" />
          </mxGeometry>
        </mxCell>
        <mxCell id="vtXWzLsRKn1HHXiiLrbu-189" value="Mux&amp;nbsp;" style="strokeWidth=2;html=1;shape=mxgraph.flowchart.terminator;whiteSpace=wrap;rotation=90;" parent="1" vertex="1">
          <mxGeometry x="1492.5" y="2320" width="120" height="45" as="geometry" />
        </mxCell>
        <mxCell id="vtXWzLsRKn1HHXiiLrbu-190" value="" style="endArrow=classic;html=1;rounded=0;entryX=0.566;entryY=1.079;entryDx=0;entryDy=0;entryPerimeter=0;" parent="1" edge="1">
          <mxGeometry width="50" height="50" relative="1" as="geometry">
            <mxPoint x="1450" y="2342.08" as="sourcePoint" />
            <mxPoint x="1526.4450000000002" y="2342.5" as="targetPoint" />
          </mxGeometry>
        </mxCell>
        <mxCell id="vtXWzLsRKn1HHXiiLrbu-191" value="Mux&amp;nbsp;" style="strokeWidth=2;html=1;shape=mxgraph.flowchart.terminator;whiteSpace=wrap;rotation=90;" parent="1" vertex="1">
          <mxGeometry x="1492.5" y="2470" width="120" height="45" as="geometry" />
        </mxCell>
        <mxCell id="vtXWzLsRKn1HHXiiLrbu-194" value="" style="endArrow=none;html=1;rounded=0;" parent="1" edge="1">
          <mxGeometry width="50" height="50" relative="1" as="geometry">
            <mxPoint x="1450" y="2430" as="sourcePoint" />
            <mxPoint x="1490" y="2430" as="targetPoint" />
          </mxGeometry>
        </mxCell>
        <mxCell id="vtXWzLsRKn1HHXiiLrbu-195" value="" style="endArrow=none;html=1;rounded=0;" parent="1" edge="1">
          <mxGeometry width="50" height="50" relative="1" as="geometry">
            <mxPoint x="1493" y="2470" as="sourcePoint" />
            <mxPoint x="1490" y="2430" as="targetPoint" />
          </mxGeometry>
        </mxCell>
        <mxCell id="vtXWzLsRKn1HHXiiLrbu-196" value="" style="endArrow=classic;html=1;rounded=0;entryX=0.309;entryY=0.95;entryDx=0;entryDy=0;entryPerimeter=0;" parent="1" target="vtXWzLsRKn1HHXiiLrbu-191" edge="1">
          <mxGeometry width="50" height="50" relative="1" as="geometry">
            <mxPoint x="1492.5" y="2470" as="sourcePoint" />
            <mxPoint x="1540" y="2470" as="targetPoint" />
          </mxGeometry>
        </mxCell>
        <mxCell id="vtXWzLsRKn1HHXiiLrbu-197" style="edgeStyle=orthogonalEdgeStyle;rounded=0;orthogonalLoop=1;jettySize=auto;html=1;exitX=0.5;exitY=0;exitDx=0;exitDy=0;exitPerimeter=0;entryX=0.041;entryY=0.167;entryDx=0;entryDy=0;entryPerimeter=0;" parent="1" source="vtXWzLsRKn1HHXiiLrbu-189" target="vtXWzLsRKn1HHXiiLrbu-159" edge="1">
          <mxGeometry relative="1" as="geometry" />
        </mxCell>
        <mxCell id="vtXWzLsRKn1HHXiiLrbu-199" value="Mux&amp;nbsp;" style="strokeWidth=2;html=1;shape=mxgraph.flowchart.terminator;whiteSpace=wrap;rotation=90;" parent="1" vertex="1">
          <mxGeometry x="1725" y="2415" width="86.25" height="37.5" as="geometry" />
        </mxCell>
        <mxCell id="vtXWzLsRKn1HHXiiLrbu-200" style="edgeStyle=orthogonalEdgeStyle;rounded=0;orthogonalLoop=1;jettySize=auto;html=1;exitX=0.5;exitY=0;exitDx=0;exitDy=0;exitPerimeter=0;entryX=0.762;entryY=1.045;entryDx=0;entryDy=0;entryPerimeter=0;" parent="1" source="vtXWzLsRKn1HHXiiLrbu-191" target="vtXWzLsRKn1HHXiiLrbu-199" edge="1">
          <mxGeometry relative="1" as="geometry" />
        </mxCell>
        <mxCell id="vtXWzLsRKn1HHXiiLrbu-201" style="edgeStyle=orthogonalEdgeStyle;rounded=0;orthogonalLoop=1;jettySize=auto;html=1;exitX=0.5;exitY=0;exitDx=0;exitDy=0;exitPerimeter=0;entryX=0.071;entryY=0.7;entryDx=0;entryDy=0;entryPerimeter=0;" parent="1" source="vtXWzLsRKn1HHXiiLrbu-199" target="vtXWzLsRKn1HHXiiLrbu-159" edge="1">
          <mxGeometry relative="1" as="geometry" />
        </mxCell>
        <mxCell id="vtXWzLsRKn1HHXiiLrbu-203" value="" style="endArrow=classic;html=1;rounded=0;entryX=0.249;entryY=1.026;entryDx=0;entryDy=0;entryPerimeter=0;" parent="1" target="vtXWzLsRKn1HHXiiLrbu-199" edge="1">
          <mxGeometry width="50" height="50" relative="1" as="geometry">
            <mxPoint x="1640" y="2410" as="sourcePoint" />
            <mxPoint x="1690" y="2360" as="targetPoint" />
          </mxGeometry>
        </mxCell>
        <mxCell id="vtXWzLsRKn1HHXiiLrbu-206" value="" style="endArrow=classic;html=1;rounded=0;" parent="1" edge="1">
          <mxGeometry width="50" height="50" relative="1" as="geometry">
            <mxPoint x="1450" y="2720" as="sourcePoint" />
            <mxPoint x="2160" y="2720" as="targetPoint" />
          </mxGeometry>
        </mxCell>
        <mxCell id="vtXWzLsRKn1HHXiiLrbu-207" value="" style="endArrow=classic;html=1;rounded=0;" parent="1" edge="1">
          <mxGeometry width="50" height="50" relative="1" as="geometry">
            <mxPoint x="1450" y="2770" as="sourcePoint" />
            <mxPoint x="2160" y="2770" as="targetPoint" />
          </mxGeometry>
        </mxCell>
        <mxCell id="vtXWzLsRKn1HHXiiLrbu-209" value="" style="endArrow=none;html=1;rounded=0;" parent="1" edge="1">
          <mxGeometry width="50" height="50" relative="1" as="geometry">
            <mxPoint x="1710" y="2510" as="sourcePoint" />
            <mxPoint x="1710" y="2450" as="targetPoint" />
          </mxGeometry>
        </mxCell>
        <mxCell id="vtXWzLsRKn1HHXiiLrbu-210" value="" style="endArrow=classic;html=1;rounded=0;" parent="1" edge="1">
          <mxGeometry width="50" height="50" relative="1" as="geometry">
            <mxPoint x="1710" y="2510" as="sourcePoint" />
            <mxPoint x="2160" y="2510" as="targetPoint" />
          </mxGeometry>
        </mxCell>
        <mxCell id="vtXWzLsRKn1HHXiiLrbu-211" value="" style="rounded=1;whiteSpace=wrap;html=1;rotation=90;" parent="1" vertex="1">
          <mxGeometry x="2340" y="2430" width="690" height="60" as="geometry" />
        </mxCell>
        <mxCell id="vtXWzLsRKn1HHXiiLrbu-212" value="WB" style="rounded=0;whiteSpace=wrap;html=1;fillColor=#15C5FF;" parent="1" vertex="1">
          <mxGeometry x="2655" y="2080" width="60" height="40" as="geometry" />
        </mxCell>
        <mxCell id="vtXWzLsRKn1HHXiiLrbu-213" value="&lt;font style=&quot;font-size: 20px;&quot;&gt;MEM/WB&lt;/font&gt;" style="text;html=1;align=center;verticalAlign=middle;whiteSpace=wrap;rounded=0;" parent="1" vertex="1">
          <mxGeometry x="2655" y="2050" width="60" height="30" as="geometry" />
        </mxCell>
        <mxCell id="vtXWzLsRKn1HHXiiLrbu-214" value="Data Memory" style="rounded=0;whiteSpace=wrap;html=1;" parent="1" vertex="1">
          <mxGeometry x="2370" y="2320" width="170" height="190" as="geometry" />
        </mxCell>
        <mxCell id="vtXWzLsRKn1HHXiiLrbu-216" value="" style="endArrow=classic;html=1;rounded=0;entryX=-0.006;entryY=0.163;entryDx=0;entryDy=0;entryPerimeter=0;" parent="1" target="vtXWzLsRKn1HHXiiLrbu-214" edge="1">
          <mxGeometry width="50" height="50" relative="1" as="geometry">
            <mxPoint x="2225" y="2350" as="sourcePoint" />
            <mxPoint x="2275" y="2300" as="targetPoint" />
          </mxGeometry>
        </mxCell>
        <mxCell id="vtXWzLsRKn1HHXiiLrbu-217" value="address" style="text;html=1;align=center;verticalAlign=middle;resizable=0;points=[];autosize=1;strokeColor=none;fillColor=none;fontSize=12;" parent="1" vertex="1">
          <mxGeometry x="2370" y="2340" width="70" height="30" as="geometry" />
        </mxCell>
        <mxCell id="vtXWzLsRKn1HHXiiLrbu-218" value="read Data" style="text;html=1;align=center;verticalAlign=middle;resizable=0;points=[];autosize=1;strokeColor=none;fillColor=none;fontSize=12;" parent="1" vertex="1">
          <mxGeometry x="2460" y="2340" width="80" height="30" as="geometry" />
        </mxCell>
        <mxCell id="vtXWzLsRKn1HHXiiLrbu-219" value="write data" style="text;html=1;align=center;verticalAlign=middle;resizable=0;points=[];autosize=1;strokeColor=none;fillColor=none;fontSize=12;" parent="1" vertex="1">
          <mxGeometry x="2370" y="2477.5" width="80" height="30" as="geometry" />
        </mxCell>
        <mxCell id="P8a3TxcjCIMmVDjfXzvQ-1" value="" style="endArrow=classic;html=1;rounded=0;entryX=0.006;entryY=0.803;entryDx=0;entryDy=0;entryPerimeter=0;" edge="1" parent="1" target="vtXWzLsRKn1HHXiiLrbu-219">
          <mxGeometry width="50" height="50" relative="1" as="geometry">
            <mxPoint x="2225" y="2500" as="sourcePoint" />
            <mxPoint x="2350" y="2500" as="targetPoint" />
          </mxGeometry>
        </mxCell>
        <mxCell id="P8a3TxcjCIMmVDjfXzvQ-2" value="" style="endArrow=classic;html=1;rounded=0;" edge="1" parent="1">
          <mxGeometry width="50" height="50" relative="1" as="geometry">
            <mxPoint x="2540" y="2360" as="sourcePoint" />
            <mxPoint x="2650" y="2360" as="targetPoint" />
          </mxGeometry>
        </mxCell>
        <mxCell id="P8a3TxcjCIMmVDjfXzvQ-3" value="" style="endArrow=classic;html=1;rounded=0;entryX=0.66;entryY=0.968;entryDx=0;entryDy=0;entryPerimeter=0;" edge="1" parent="1">
          <mxGeometry width="50" height="50" relative="1" as="geometry">
            <mxPoint x="2225" y="2560" as="sourcePoint" />
            <mxPoint x="2656.92" y="2560.4" as="targetPoint" />
          </mxGeometry>
        </mxCell>
        <mxCell id="P8a3TxcjCIMmVDjfXzvQ-5" value="" style="endArrow=classic;html=1;rounded=0;entryX=0.66;entryY=0.968;entryDx=0;entryDy=0;entryPerimeter=0;" edge="1" parent="1">
          <mxGeometry width="50" height="50" relative="1" as="geometry">
            <mxPoint x="2225" y="2720" as="sourcePoint" />
            <mxPoint x="2656.92" y="2720.4" as="targetPoint" />
          </mxGeometry>
        </mxCell>
        <mxCell id="P8a3TxcjCIMmVDjfXzvQ-6" value="" style="endArrow=classic;html=1;rounded=0;entryX=0.66;entryY=0.968;entryDx=0;entryDy=0;entryPerimeter=0;" edge="1" parent="1">
          <mxGeometry width="50" height="50" relative="1" as="geometry">
            <mxPoint x="2225" y="2770" as="sourcePoint" />
            <mxPoint x="2656.92" y="2770.4" as="targetPoint" />
          </mxGeometry>
        </mxCell>
        <mxCell id="P8a3TxcjCIMmVDjfXzvQ-7" value="Mux&amp;nbsp;" style="strokeWidth=2;html=1;shape=mxgraph.flowchart.terminator;whiteSpace=wrap;rotation=90;" vertex="1" parent="1">
          <mxGeometry x="2830" y="2365" width="120" height="60" as="geometry" />
        </mxCell>
        <mxCell id="P8a3TxcjCIMmVDjfXzvQ-8" value="&lt;font style=&quot;font-size: 16px;&quot;&gt;&lt;b&gt;1&lt;/b&gt;&lt;/font&gt;" style="text;html=1;align=center;verticalAlign=middle;resizable=0;points=[];autosize=1;strokeColor=none;fillColor=none;" vertex="1" parent="1">
          <mxGeometry x="2860" y="2350" width="30" height="30" as="geometry" />
        </mxCell>
        <mxCell id="P8a3TxcjCIMmVDjfXzvQ-9" value="&lt;font style=&quot;font-size: 16px;&quot;&gt;&lt;b&gt;0&lt;/b&gt;&lt;/font&gt;" style="text;html=1;align=center;verticalAlign=middle;resizable=0;points=[];autosize=1;strokeColor=none;fillColor=none;" vertex="1" parent="1">
          <mxGeometry x="2860" y="2410" width="30" height="30" as="geometry" />
        </mxCell>
        <mxCell id="P8a3TxcjCIMmVDjfXzvQ-10" value="" style="endArrow=classic;html=1;rounded=0;entryX=0.099;entryY=0.523;entryDx=0;entryDy=0;entryPerimeter=0;" edge="1" parent="1" target="P8a3TxcjCIMmVDjfXzvQ-8">
          <mxGeometry width="50" height="50" relative="1" as="geometry">
            <mxPoint x="2715" y="2364.35" as="sourcePoint" />
            <mxPoint x="2855" y="2364.35" as="targetPoint" />
          </mxGeometry>
        </mxCell>
        <mxCell id="P8a3TxcjCIMmVDjfXzvQ-11" value="" style="endArrow=none;html=1;rounded=0;" edge="1" parent="1">
          <mxGeometry width="50" height="50" relative="1" as="geometry">
            <mxPoint x="2310" y="2540" as="sourcePoint" />
            <mxPoint x="2310" y="2350" as="targetPoint" />
          </mxGeometry>
        </mxCell>
        <mxCell id="P8a3TxcjCIMmVDjfXzvQ-13" value="" style="endArrow=classic;html=1;rounded=0;" edge="1" parent="1">
          <mxGeometry width="50" height="50" relative="1" as="geometry">
            <mxPoint x="2310" y="2540" as="sourcePoint" />
            <mxPoint x="2650" y="2540" as="targetPoint" />
          </mxGeometry>
        </mxCell>
        <mxCell id="P8a3TxcjCIMmVDjfXzvQ-14" value="" style="endArrow=classic;html=1;rounded=0;entryX=0.236;entryY=0.931;entryDx=0;entryDy=0;entryPerimeter=0;" edge="1" parent="1" target="vtXWzLsRKn1HHXiiLrbu-211">
          <mxGeometry width="50" height="50" relative="1" as="geometry">
            <mxPoint x="2225" y="2280" as="sourcePoint" />
            <mxPoint x="2650" y="2280" as="targetPoint" />
          </mxGeometry>
        </mxCell>
        <mxCell id="P8a3TxcjCIMmVDjfXzvQ-15" value="" style="endArrow=none;html=1;rounded=0;" edge="1" parent="1">
          <mxGeometry width="50" height="50" relative="1" as="geometry">
            <mxPoint x="2715" y="2540" as="sourcePoint" />
            <mxPoint x="2780" y="2540" as="targetPoint" />
          </mxGeometry>
        </mxCell>
        <mxCell id="P8a3TxcjCIMmVDjfXzvQ-16" value="" style="endArrow=none;html=1;rounded=0;" edge="1" parent="1">
          <mxGeometry width="50" height="50" relative="1" as="geometry">
            <mxPoint x="2780" y="2540" as="sourcePoint" />
            <mxPoint x="2780" y="2430" as="targetPoint" />
          </mxGeometry>
        </mxCell>
        <mxCell id="P8a3TxcjCIMmVDjfXzvQ-17" value="" style="endArrow=classic;html=1;rounded=0;entryX=-0.096;entryY=0.638;entryDx=0;entryDy=0;entryPerimeter=0;" edge="1" parent="1" target="P8a3TxcjCIMmVDjfXzvQ-9">
          <mxGeometry width="50" height="50" relative="1" as="geometry">
            <mxPoint x="2780" y="2430" as="sourcePoint" />
            <mxPoint x="2830" y="2380" as="targetPoint" />
          </mxGeometry>
        </mxCell>
        <mxCell id="P8a3TxcjCIMmVDjfXzvQ-19" value="" style="endArrow=none;html=1;rounded=0;" edge="1" parent="1">
          <mxGeometry width="50" height="50" relative="1" as="geometry">
            <mxPoint x="2715" y="2720" as="sourcePoint" />
            <mxPoint x="2920" y="2720" as="targetPoint" />
          </mxGeometry>
        </mxCell>
        <mxCell id="P8a3TxcjCIMmVDjfXzvQ-20" value="" style="endArrow=none;html=1;rounded=0;" edge="1" parent="1">
          <mxGeometry width="50" height="50" relative="1" as="geometry">
            <mxPoint x="2715" y="2560" as="sourcePoint" />
            <mxPoint x="2960" y="2560" as="targetPoint" />
          </mxGeometry>
        </mxCell>
        <mxCell id="P8a3TxcjCIMmVDjfXzvQ-21" value="" style="endArrow=none;html=1;rounded=0;" edge="1" parent="1">
          <mxGeometry width="50" height="50" relative="1" as="geometry">
            <mxPoint x="2715" y="2770" as="sourcePoint" />
            <mxPoint x="2840" y="2770" as="targetPoint" />
          </mxGeometry>
        </mxCell>
        <mxCell id="P8a3TxcjCIMmVDjfXzvQ-22" value="" style="endArrow=none;html=1;rounded=0;" edge="1" parent="1">
          <mxGeometry width="50" height="50" relative="1" as="geometry">
            <mxPoint x="2715" y="2280" as="sourcePoint" />
            <mxPoint x="3120" y="2280" as="targetPoint" />
          </mxGeometry>
        </mxCell>
        <mxCell id="P8a3TxcjCIMmVDjfXzvQ-23" value="" style="endArrow=none;html=1;rounded=0;" edge="1" parent="1">
          <mxGeometry width="50" height="50" relative="1" as="geometry">
            <mxPoint x="2920" y="2400" as="sourcePoint" />
            <mxPoint x="3000" y="2400" as="targetPoint" />
          </mxGeometry>
        </mxCell>
        <mxCell id="P8a3TxcjCIMmVDjfXzvQ-24" value="" style="endArrow=none;html=1;rounded=0;" edge="1" parent="1">
          <mxGeometry width="50" height="50" relative="1" as="geometry">
            <mxPoint x="2840" y="2770" as="sourcePoint" />
            <mxPoint x="2840" y="3000" as="targetPoint" />
          </mxGeometry>
        </mxCell>
        <mxCell id="P8a3TxcjCIMmVDjfXzvQ-25" value="" style="endArrow=none;html=1;rounded=0;" edge="1" parent="1">
          <mxGeometry width="50" height="50" relative="1" as="geometry">
            <mxPoint x="2920" y="2720" as="sourcePoint" />
            <mxPoint x="2920" y="3160" as="targetPoint" />
          </mxGeometry>
        </mxCell>
        <mxCell id="P8a3TxcjCIMmVDjfXzvQ-26" value="" style="endArrow=none;html=1;rounded=0;" edge="1" parent="1">
          <mxGeometry width="50" height="50" relative="1" as="geometry">
            <mxPoint x="2960" y="2560" as="sourcePoint" />
            <mxPoint x="2960" y="3080" as="targetPoint" />
          </mxGeometry>
        </mxCell>
        <mxCell id="P8a3TxcjCIMmVDjfXzvQ-27" value="" style="endArrow=none;html=1;rounded=0;" edge="1" parent="1">
          <mxGeometry width="50" height="50" relative="1" as="geometry">
            <mxPoint x="3000" y="2400" as="sourcePoint" />
            <mxPoint x="3000" y="3030" as="targetPoint" />
          </mxGeometry>
        </mxCell>
        <mxCell id="P8a3TxcjCIMmVDjfXzvQ-28" value="" style="endArrow=none;html=1;rounded=0;" edge="1" parent="1">
          <mxGeometry width="50" height="50" relative="1" as="geometry">
            <mxPoint x="3120" y="2280" as="sourcePoint" />
            <mxPoint x="3120" y="3120" as="targetPoint" />
          </mxGeometry>
        </mxCell>
        <mxCell id="P8a3TxcjCIMmVDjfXzvQ-29" value="Mux&amp;nbsp;" style="strokeWidth=2;html=1;shape=mxgraph.flowchart.terminator;whiteSpace=wrap;rotation=0;" vertex="1" parent="1">
          <mxGeometry x="790" y="2830" width="140" height="45" as="geometry" />
        </mxCell>
        <mxCell id="P8a3TxcjCIMmVDjfXzvQ-30" value="" style="endArrow=none;html=1;rounded=0;" edge="1" parent="1">
          <mxGeometry width="50" height="50" relative="1" as="geometry">
            <mxPoint x="796" y="3000" as="sourcePoint" />
            <mxPoint x="2840" y="3000" as="targetPoint" />
          </mxGeometry>
        </mxCell>
        <mxCell id="P8a3TxcjCIMmVDjfXzvQ-31" value="" style="endArrow=classic;html=1;rounded=0;entryX=0.023;entryY=0.741;entryDx=0;entryDy=0;entryPerimeter=0;" edge="1" parent="1" target="P8a3TxcjCIMmVDjfXzvQ-29">
          <mxGeometry width="50" height="50" relative="1" as="geometry">
            <mxPoint x="795" y="3000" as="sourcePoint" />
            <mxPoint x="795" y="2880" as="targetPoint" />
          </mxGeometry>
        </mxCell>
        <mxCell id="P8a3TxcjCIMmVDjfXzvQ-32" value="JAL/JALR" style="text;html=1;align=center;verticalAlign=middle;whiteSpace=wrap;rounded=0;" vertex="1" parent="1">
          <mxGeometry x="791" y="2970" width="60" height="30" as="geometry" />
        </mxCell>
        <mxCell id="P8a3TxcjCIMmVDjfXzvQ-34" value="" style="endArrow=none;html=1;rounded=0;" edge="1" parent="1">
          <mxGeometry width="50" height="50" relative="1" as="geometry">
            <mxPoint x="850" y="3040" as="sourcePoint" />
            <mxPoint x="3000" y="3030" as="targetPoint" />
          </mxGeometry>
        </mxCell>
        <mxCell id="P8a3TxcjCIMmVDjfXzvQ-35" value="" style="endArrow=classic;html=1;rounded=0;entryX=0.429;entryY=1.031;entryDx=0;entryDy=0;entryPerimeter=0;" edge="1" parent="1" target="P8a3TxcjCIMmVDjfXzvQ-29">
          <mxGeometry width="50" height="50" relative="1" as="geometry">
            <mxPoint x="850" y="3040" as="sourcePoint" />
            <mxPoint x="900" y="2990" as="targetPoint" />
          </mxGeometry>
        </mxCell>
        <mxCell id="P8a3TxcjCIMmVDjfXzvQ-36" value="" style="endArrow=none;html=1;rounded=0;" edge="1" parent="1">
          <mxGeometry width="50" height="50" relative="1" as="geometry">
            <mxPoint x="880" y="3080" as="sourcePoint" />
            <mxPoint x="2961" y="3080" as="targetPoint" />
          </mxGeometry>
        </mxCell>
        <mxCell id="P8a3TxcjCIMmVDjfXzvQ-37" value="" style="endArrow=classic;html=1;rounded=0;entryX=0.643;entryY=1.111;entryDx=0;entryDy=0;entryPerimeter=0;" edge="1" parent="1" target="P8a3TxcjCIMmVDjfXzvQ-29">
          <mxGeometry width="50" height="50" relative="1" as="geometry">
            <mxPoint x="880" y="3080" as="sourcePoint" />
            <mxPoint x="930" y="3030" as="targetPoint" />
          </mxGeometry>
        </mxCell>
        <mxCell id="P8a3TxcjCIMmVDjfXzvQ-38" value="LUI" style="text;html=1;align=center;verticalAlign=middle;whiteSpace=wrap;rounded=0;" vertex="1" parent="1">
          <mxGeometry x="865" y="3060" width="60" height="30" as="geometry" />
        </mxCell>
        <mxCell id="P8a3TxcjCIMmVDjfXzvQ-39" value="Write_reg" style="text;html=1;align=center;verticalAlign=middle;whiteSpace=wrap;rounded=0;" vertex="1" parent="1">
          <mxGeometry x="1115" y="2700" width="60" height="20" as="geometry" />
        </mxCell>
        <mxCell id="P8a3TxcjCIMmVDjfXzvQ-40" value="" style="endArrow=none;html=1;rounded=0;" edge="1" parent="1">
          <mxGeometry width="50" height="50" relative="1" as="geometry">
            <mxPoint x="920" y="3120" as="sourcePoint" />
            <mxPoint x="3119" y="3120" as="targetPoint" />
          </mxGeometry>
        </mxCell>
        <mxCell id="P8a3TxcjCIMmVDjfXzvQ-41" value="" style="endArrow=classic;html=1;rounded=0;entryX=0.89;entryY=0.89;entryDx=0;entryDy=0;entryPerimeter=0;" edge="1" parent="1" target="P8a3TxcjCIMmVDjfXzvQ-29">
          <mxGeometry width="50" height="50" relative="1" as="geometry">
            <mxPoint x="920" y="3120" as="sourcePoint" />
            <mxPoint x="970" y="3060" as="targetPoint" />
          </mxGeometry>
        </mxCell>
        <mxCell id="P8a3TxcjCIMmVDjfXzvQ-42" value="" style="endArrow=none;html=1;rounded=0;" edge="1" parent="1">
          <mxGeometry width="50" height="50" relative="1" as="geometry">
            <mxPoint x="850" y="2830" as="sourcePoint" />
            <mxPoint x="850" y="2460" as="targetPoint" />
          </mxGeometry>
        </mxCell>
        <mxCell id="P8a3TxcjCIMmVDjfXzvQ-43" value="" style="endArrow=classic;html=1;rounded=0;entryX=0.006;entryY=0.628;entryDx=0;entryDy=0;entryPerimeter=0;" edge="1" parent="1" target="vtXWzLsRKn1HHXiiLrbu-132">
          <mxGeometry width="50" height="50" relative="1" as="geometry">
            <mxPoint x="850" y="2460" as="sourcePoint" />
            <mxPoint x="900" y="2410" as="targetPoint" />
          </mxGeometry>
        </mxCell>
        <mxCell id="P8a3TxcjCIMmVDjfXzvQ-44" value="" style="endArrow=none;html=1;rounded=0;" edge="1" parent="1">
          <mxGeometry width="50" height="50" relative="1" as="geometry">
            <mxPoint x="1010" y="3160" as="sourcePoint" />
            <mxPoint x="2920" y="3160" as="targetPoint" />
          </mxGeometry>
        </mxCell>
        <mxCell id="P8a3TxcjCIMmVDjfXzvQ-45" value="" style="endArrow=none;html=1;rounded=0;" edge="1" parent="1">
          <mxGeometry width="50" height="50" relative="1" as="geometry">
            <mxPoint x="1010" y="3160" as="sourcePoint" />
            <mxPoint x="1000" y="2420" as="targetPoint" />
          </mxGeometry>
        </mxCell>
        <mxCell id="P8a3TxcjCIMmVDjfXzvQ-46" value="" style="endArrow=classic;html=1;rounded=0;" edge="1" parent="1">
          <mxGeometry width="50" height="50" relative="1" as="geometry">
            <mxPoint x="1000" y="2420" as="sourcePoint" />
            <mxPoint x="1050" y="2420" as="targetPoint" />
          </mxGeometry>
        </mxCell>
        <mxCell id="P8a3TxcjCIMmVDjfXzvQ-47" value="" style="ellipse;whiteSpace=wrap;html=1;rotation=90;fillColor=#dae8fc;strokeColor=#6c8ebf;fontColor=#2845FF;" vertex="1" parent="1">
          <mxGeometry x="935" y="2020" width="150" height="110" as="geometry" />
        </mxCell>
        <mxCell id="P8a3TxcjCIMmVDjfXzvQ-48" value="CONTROL" style="text;html=1;align=center;verticalAlign=middle;resizable=0;points=[];autosize=1;strokeColor=none;fillColor=none;fontColor=#402BFF;fontStyle=1" vertex="1" parent="1">
          <mxGeometry x="970" y="2060" width="80" height="30" as="geometry" />
        </mxCell>
        <mxCell id="P8a3TxcjCIMmVDjfXzvQ-49" value="" style="endArrow=classic;html=1;rounded=0;entryX=0.543;entryY=0.965;entryDx=0;entryDy=0;entryPerimeter=0;" edge="1" parent="1" target="P8a3TxcjCIMmVDjfXzvQ-47">
          <mxGeometry width="50" height="50" relative="1" as="geometry">
            <mxPoint x="920" y="2080" as="sourcePoint" />
            <mxPoint x="970" y="2030" as="targetPoint" />
          </mxGeometry>
        </mxCell>
        <mxCell id="P8a3TxcjCIMmVDjfXzvQ-50" value="&lt;font style=&quot;font-size: 18px; background-color: rgb(87, 255, 150);&quot;&gt;CUSignals are: Branch, MemRead,MemtoReg, ALUOp,MemWrite, ALUSrc, RegWrite, AUIPCCtrl, jal, jalr, halt, lui&lt;/font&gt;" style="rounded=0;whiteSpace=wrap;html=1;fillColor=#1FFF5B;" vertex="1" parent="1">
          <mxGeometry x="120" y="3130" width="530" height="60" as="geometry" />
        </mxCell>
        <mxCell id="P8a3TxcjCIMmVDjfXzvQ-51" value="Mux&amp;nbsp;" style="strokeWidth=2;html=1;shape=mxgraph.flowchart.terminator;whiteSpace=wrap;rotation=90;" vertex="1" parent="1">
          <mxGeometry x="1125" y="2025" width="120" height="45" as="geometry" />
        </mxCell>
        <mxCell id="P8a3TxcjCIMmVDjfXzvQ-52" value="" style="endArrow=classic;html=1;rounded=0;" edge="1" parent="1">
          <mxGeometry width="50" height="50" relative="1" as="geometry">
            <mxPoint x="1060" y="2080" as="sourcePoint" />
            <mxPoint x="1160" y="2080" as="targetPoint" />
          </mxGeometry>
        </mxCell>
        <mxCell id="P8a3TxcjCIMmVDjfXzvQ-53" value="" style="endArrow=classic;html=1;rounded=0;" edge="1" parent="1">
          <mxGeometry width="50" height="50" relative="1" as="geometry">
            <mxPoint x="1065" y="2008.89" as="sourcePoint" />
            <mxPoint x="1165" y="2008.89" as="targetPoint" />
          </mxGeometry>
        </mxCell>
        <mxCell id="P8a3TxcjCIMmVDjfXzvQ-54" value="0" style="text;html=1;align=center;verticalAlign=middle;whiteSpace=wrap;rounded=0;" vertex="1" parent="1">
          <mxGeometry x="1030" y="1995" width="60" height="25" as="geometry" />
        </mxCell>
        <mxCell id="P8a3TxcjCIMmVDjfXzvQ-55" value="Mux&amp;nbsp;" style="strokeWidth=2;html=1;shape=mxgraph.flowchart.terminator;whiteSpace=wrap;rotation=90;" vertex="1" parent="1">
          <mxGeometry x="375" y="1810" width="120" height="45" as="geometry" />
        </mxCell>
        <mxCell id="P8a3TxcjCIMmVDjfXzvQ-56" value="" style="endArrow=none;html=1;rounded=0;" edge="1" parent="1">
          <mxGeometry width="50" height="50" relative="1" as="geometry">
            <mxPoint x="600" y="2010" as="sourcePoint" />
            <mxPoint x="600" y="1880" as="targetPoint" />
          </mxGeometry>
        </mxCell>
        <mxCell id="P8a3TxcjCIMmVDjfXzvQ-57" value="" style="endArrow=classic;html=1;rounded=0;entryX=0.89;entryY=0.11;entryDx=0;entryDy=0;entryPerimeter=0;" edge="1" parent="1" target="P8a3TxcjCIMmVDjfXzvQ-55">
          <mxGeometry width="50" height="50" relative="1" as="geometry">
            <mxPoint x="600" y="1880" as="sourcePoint" />
            <mxPoint x="650" y="1830" as="targetPoint" />
          </mxGeometry>
        </mxCell>
        <mxCell id="P8a3TxcjCIMmVDjfXzvQ-58" value="" style="endArrow=none;html=1;rounded=0;" edge="1" parent="1">
          <mxGeometry width="50" height="50" relative="1" as="geometry">
            <mxPoint x="2310" y="2350" as="sourcePoint" />
            <mxPoint x="2310" y="1840" as="targetPoint" />
          </mxGeometry>
        </mxCell>
        <mxCell id="P8a3TxcjCIMmVDjfXzvQ-59" value="" style="endArrow=classic;html=1;rounded=0;" edge="1" parent="1">
          <mxGeometry width="50" height="50" relative="1" as="geometry">
            <mxPoint x="2310" y="1840" as="sourcePoint" />
            <mxPoint x="460" y="1840" as="targetPoint" />
          </mxGeometry>
        </mxCell>
        <mxCell id="P8a3TxcjCIMmVDjfXzvQ-60" value="" style="endArrow=none;html=1;rounded=0;" edge="1" parent="1">
          <mxGeometry width="50" height="50" relative="1" as="geometry">
            <mxPoint x="2250" y="2280" as="sourcePoint" />
            <mxPoint x="2250" y="1790" as="targetPoint" />
          </mxGeometry>
        </mxCell>
        <mxCell id="P8a3TxcjCIMmVDjfXzvQ-61" value="" style="endArrow=classic;html=1;rounded=0;" edge="1" parent="1">
          <mxGeometry width="50" height="50" relative="1" as="geometry">
            <mxPoint x="2250" y="1790" as="sourcePoint" />
            <mxPoint x="460" y="1800" as="targetPoint" />
          </mxGeometry>
        </mxCell>
        <mxCell id="P8a3TxcjCIMmVDjfXzvQ-62" value="" style="endArrow=none;html=1;rounded=0;" edge="1" parent="1">
          <mxGeometry width="50" height="50" relative="1" as="geometry">
            <mxPoint x="50" y="1840" as="sourcePoint" />
            <mxPoint x="410" y="1840" as="targetPoint" />
          </mxGeometry>
        </mxCell>
        <mxCell id="P8a3TxcjCIMmVDjfXzvQ-63" value="" style="endArrow=none;html=1;rounded=0;" edge="1" parent="1">
          <mxGeometry width="50" height="50" relative="1" as="geometry">
            <mxPoint x="50" y="2360" as="sourcePoint" />
            <mxPoint x="50" y="1840" as="targetPoint" />
          </mxGeometry>
        </mxCell>
        <mxCell id="P8a3TxcjCIMmVDjfXzvQ-64" value="" style="endArrow=classic;html=1;rounded=0;entryX=-0.026;entryY=0.526;entryDx=0;entryDy=0;entryPerimeter=0;" edge="1" parent="1" target="vtXWzLsRKn1HHXiiLrbu-110">
          <mxGeometry width="50" height="50" relative="1" as="geometry">
            <mxPoint x="50" y="2360" as="sourcePoint" />
            <mxPoint x="160" y="2360" as="targetPoint" />
          </mxGeometry>
        </mxCell>
        <mxCell id="P8a3TxcjCIMmVDjfXzvQ-65" value="" style="ellipse;whiteSpace=wrap;html=1;rotation=90;fillColor=#dae8fc;strokeColor=#6c8ebf;fontColor=#2845FF;" vertex="1" parent="1">
          <mxGeometry x="1910" y="2620" width="120" height="60" as="geometry" />
        </mxCell>
        <mxCell id="P8a3TxcjCIMmVDjfXzvQ-66" value="&lt;font style=&quot;font-size: 9px;&quot;&gt;ALU&amp;nbsp;&lt;/font&gt;&lt;div&gt;&lt;font style=&quot;font-size: 9px;&quot;&gt;CONTROL&lt;/font&gt;&lt;/div&gt;" style="text;html=1;align=center;verticalAlign=middle;resizable=0;points=[];autosize=1;strokeColor=none;fillColor=none;fontColor=#402BFF;fontSize=11;fontStyle=1" vertex="1" parent="1">
          <mxGeometry x="1935" y="2620" width="70" height="40" as="geometry" />
        </mxCell>
        <mxCell id="P8a3TxcjCIMmVDjfXzvQ-68" value="" style="endArrow=none;html=1;rounded=0;" edge="1" parent="1">
          <mxGeometry width="50" height="50" relative="1" as="geometry">
            <mxPoint x="1450" y="2560" as="sourcePoint" />
            <mxPoint x="1540" y="2560" as="targetPoint" />
          </mxGeometry>
        </mxCell>
        <mxCell id="P8a3TxcjCIMmVDjfXzvQ-69" value="" style="endArrow=none;html=1;rounded=0;" edge="1" parent="1">
          <mxGeometry width="50" height="50" relative="1" as="geometry">
            <mxPoint x="1540" y="2680" as="sourcePoint" />
            <mxPoint x="1540" y="2560" as="targetPoint" />
          </mxGeometry>
        </mxCell>
        <mxCell id="P8a3TxcjCIMmVDjfXzvQ-70" value="" style="endArrow=classic;html=1;rounded=0;entryX=0.755;entryY=0.971;entryDx=0;entryDy=0;entryPerimeter=0;" edge="1" parent="1" target="P8a3TxcjCIMmVDjfXzvQ-65">
          <mxGeometry width="50" height="50" relative="1" as="geometry">
            <mxPoint x="1540" y="2680" as="sourcePoint" />
            <mxPoint x="1930" y="2680" as="targetPoint" />
          </mxGeometry>
        </mxCell>
        <mxCell id="P8a3TxcjCIMmVDjfXzvQ-71" value="" style="endArrow=classic;html=1;rounded=0;entryX=0.576;entryY=1.003;entryDx=0;entryDy=0;entryPerimeter=0;" edge="1" parent="1" target="vtXWzLsRKn1HHXiiLrbu-159">
          <mxGeometry width="50" height="50" relative="1" as="geometry">
            <mxPoint x="1970" y="2590" as="sourcePoint" />
            <mxPoint x="2020" y="2540" as="targetPoint" />
          </mxGeometry>
        </mxCell>
        <mxCell id="P8a3TxcjCIMmVDjfXzvQ-72" value="" style="endArrow=classic;html=1;rounded=0;" edge="1" parent="1">
          <mxGeometry width="50" height="50" relative="1" as="geometry">
            <mxPoint x="2040" y="2680" as="sourcePoint" />
            <mxPoint x="1990" y="2680" as="targetPoint" />
          </mxGeometry>
        </mxCell>
        <mxCell id="P8a3TxcjCIMmVDjfXzvQ-73" value="&lt;font style=&quot;font-size: 10px;&quot;&gt;ALUOp&lt;/font&gt;" style="text;html=1;align=center;verticalAlign=middle;whiteSpace=wrap;rounded=0;" vertex="1" parent="1">
          <mxGeometry x="1990" y="2650" width="60" height="30" as="geometry" />
        </mxCell>
        <mxCell id="P8a3TxcjCIMmVDjfXzvQ-74" value="&lt;font style=&quot;font-size: 10px;&quot;&gt;ALUSel&lt;/font&gt;" style="text;html=1;align=center;verticalAlign=middle;whiteSpace=wrap;rounded=0;" vertex="1" parent="1">
          <mxGeometry x="1960" y="2410" width="60" height="30" as="geometry" />
        </mxCell>
        <mxCell id="P8a3TxcjCIMmVDjfXzvQ-76" value="Branch Control" style="ellipse;whiteSpace=wrap;html=1;aspect=fixed;fillColor=#dae8fc;strokeColor=#6c8ebf;" vertex="1" parent="1">
          <mxGeometry x="2440" y="1930" width="80" height="80" as="geometry" />
        </mxCell>
        <mxCell id="P8a3TxcjCIMmVDjfXzvQ-79" value="" style="endArrow=classic;html=1;rounded=0;strokeColor=#000000;" edge="1" parent="1">
          <mxGeometry width="50" height="50" relative="1" as="geometry">
            <mxPoint x="2015" y="2324.6300000000006" as="sourcePoint" />
            <mxPoint x="2165" y="2324.6300000000006" as="targetPoint" />
          </mxGeometry>
        </mxCell>
        <mxCell id="P8a3TxcjCIMmVDjfXzvQ-81" value="&lt;font&gt;output flags&lt;/font&gt;" style="text;html=1;align=center;verticalAlign=middle;whiteSpace=wrap;rounded=0;" vertex="1" parent="1">
          <mxGeometry x="2050" y="2300" width="90" height="30" as="geometry" />
        </mxCell>
        <mxCell id="P8a3TxcjCIMmVDjfXzvQ-89" value="" style="endArrow=none;html=1;rounded=0;" edge="1" parent="1">
          <mxGeometry width="50" height="50" relative="1" as="geometry">
            <mxPoint x="2225" y="2324.63" as="sourcePoint" />
            <mxPoint x="2355" y="2324.63" as="targetPoint" />
          </mxGeometry>
        </mxCell>
        <mxCell id="P8a3TxcjCIMmVDjfXzvQ-93" value="" style="endArrow=none;html=1;rounded=0;" edge="1" parent="1">
          <mxGeometry width="50" height="50" relative="1" as="geometry">
            <mxPoint x="2350" y="2330" as="sourcePoint" />
            <mxPoint x="2350" y="1990" as="targetPoint" />
          </mxGeometry>
        </mxCell>
        <mxCell id="P8a3TxcjCIMmVDjfXzvQ-94" value="" style="endArrow=classic;html=1;rounded=0;" edge="1" parent="1">
          <mxGeometry width="50" height="50" relative="1" as="geometry">
            <mxPoint x="2350" y="1990" as="sourcePoint" />
            <mxPoint x="2440" y="1990" as="targetPoint" />
          </mxGeometry>
        </mxCell>
        <mxCell id="P8a3TxcjCIMmVDjfXzvQ-95" value="" style="endArrow=classic;html=1;rounded=0;entryX=0;entryY=0.375;entryDx=0;entryDy=0;entryPerimeter=0;" edge="1" parent="1" target="P8a3TxcjCIMmVDjfXzvQ-76">
          <mxGeometry width="50" height="50" relative="1" as="geometry">
            <mxPoint x="2360" y="1960" as="sourcePoint" />
            <mxPoint x="2430.152567171405" y="1966.5097139128238" as="targetPoint" />
          </mxGeometry>
        </mxCell>
        <mxCell id="P8a3TxcjCIMmVDjfXzvQ-96" value="Branch" style="text;html=1;align=center;verticalAlign=middle;whiteSpace=wrap;rounded=0;" vertex="1" parent="1">
          <mxGeometry x="2370" y="1940" width="60" height="20" as="geometry" />
        </mxCell>
        <mxCell id="P8a3TxcjCIMmVDjfXzvQ-98" value="branch_out" style="text;html=1;align=center;verticalAlign=middle;whiteSpace=wrap;rounded=0;" vertex="1" parent="1">
          <mxGeometry x="2530" y="1945" width="60" height="30" as="geometry" />
        </mxCell>
        <mxCell id="P8a3TxcjCIMmVDjfXzvQ-99" value="CUSignals" style="text;html=1;align=center;verticalAlign=middle;whiteSpace=wrap;rounded=0;" vertex="1" parent="1">
          <mxGeometry x="1075" y="2045" width="60" height="30" as="geometry" />
        </mxCell>
        <mxCell id="P8a3TxcjCIMmVDjfXzvQ-101" value="&lt;font style=&quot;font-size: 14px;&quot;&gt;Hazard Detection&amp;nbsp;&lt;/font&gt;&lt;div&gt;&lt;font style=&quot;font-size: 14px;&quot;&gt;Unit&lt;/font&gt;&lt;/div&gt;" style="rounded=1;whiteSpace=wrap;html=1;" vertex="1" parent="1">
          <mxGeometry x="675" y="1950" width="120" height="60" as="geometry" />
        </mxCell>
        <mxCell id="P8a3TxcjCIMmVDjfXzvQ-102" value="" style="endArrow=none;html=1;rounded=0;" edge="1" parent="1">
          <mxGeometry width="50" height="50" relative="1" as="geometry">
            <mxPoint x="760" y="2120" as="sourcePoint" />
            <mxPoint x="920" y="2120" as="targetPoint" />
          </mxGeometry>
        </mxCell>
        <mxCell id="P8a3TxcjCIMmVDjfXzvQ-103" value="" style="endArrow=classic;html=1;rounded=0;" edge="1" parent="1">
          <mxGeometry width="50" height="50" relative="1" as="geometry">
            <mxPoint x="760" y="2120" as="sourcePoint" />
            <mxPoint x="760" y="2010" as="targetPoint" />
          </mxGeometry>
        </mxCell>
        <mxCell id="P8a3TxcjCIMmVDjfXzvQ-104" value="" style="endArrow=none;html=1;rounded=0;" edge="1" parent="1">
          <mxGeometry width="50" height="50" relative="1" as="geometry">
            <mxPoint x="700" y="2050" as="sourcePoint" />
            <mxPoint x="700" y="2010" as="targetPoint" />
          </mxGeometry>
        </mxCell>
        <mxCell id="P8a3TxcjCIMmVDjfXzvQ-105" value="" style="endArrow=none;html=1;rounded=0;" edge="1" parent="1">
          <mxGeometry width="50" height="50" relative="1" as="geometry">
            <mxPoint x="550" y="2050" as="sourcePoint" />
            <mxPoint x="700" y="2050" as="targetPoint" />
          </mxGeometry>
        </mxCell>
        <mxCell id="P8a3TxcjCIMmVDjfXzvQ-106" value="" style="endArrow=none;html=1;rounded=0;" edge="1" parent="1">
          <mxGeometry width="50" height="50" relative="1" as="geometry">
            <mxPoint x="550" y="2110" as="sourcePoint" />
            <mxPoint x="550" y="2050" as="targetPoint" />
          </mxGeometry>
        </mxCell>
        <mxCell id="P8a3TxcjCIMmVDjfXzvQ-107" value="" style="endArrow=none;html=1;rounded=0;" edge="1" parent="1">
          <mxGeometry width="50" height="50" relative="1" as="geometry">
            <mxPoint x="190" y="2110" as="sourcePoint" />
            <mxPoint x="550" y="2110" as="targetPoint" />
          </mxGeometry>
        </mxCell>
        <mxCell id="P8a3TxcjCIMmVDjfXzvQ-108" value="" style="endArrow=classic;html=1;rounded=0;entryX=0.367;entryY=-0.014;entryDx=0;entryDy=0;entryPerimeter=0;" edge="1" parent="1" target="vtXWzLsRKn1HHXiiLrbu-110">
          <mxGeometry width="50" height="50" relative="1" as="geometry">
            <mxPoint x="190" y="2110" as="sourcePoint" />
            <mxPoint x="190" y="2200" as="targetPoint" />
          </mxGeometry>
        </mxCell>
        <mxCell id="P8a3TxcjCIMmVDjfXzvQ-109" value="" style="endArrow=classic;html=1;rounded=0;entryX=0.367;entryY=-0.014;entryDx=0;entryDy=0;entryPerimeter=0;" edge="1" parent="1">
          <mxGeometry width="50" height="50" relative="1" as="geometry">
            <mxPoint x="440" y="2110" as="sourcePoint" />
            <mxPoint x="442" y="2257" as="targetPoint" />
          </mxGeometry>
        </mxCell>
        <mxCell id="P8a3TxcjCIMmVDjfXzvQ-110" value="" style="shape=xor;whiteSpace=wrap;html=1;rotation=90;" vertex="1" parent="1">
          <mxGeometry x="1155" y="1870" width="60" height="80" as="geometry" />
        </mxCell>
        <mxCell id="P8a3TxcjCIMmVDjfXzvQ-111" value="" style="endArrow=classic;html=1;rounded=0;strokeColor=#1C30FF;" edge="1" parent="1">
          <mxGeometry width="50" height="50" relative="1" as="geometry">
            <mxPoint x="1184.52" y="1940" as="sourcePoint" />
            <mxPoint x="1184.52" y="1990" as="targetPoint" />
          </mxGeometry>
        </mxCell>
        <mxCell id="P8a3TxcjCIMmVDjfXzvQ-112" value="" style="endArrow=none;html=1;rounded=0;" edge="1" parent="1">
          <mxGeometry width="50" height="50" relative="1" as="geometry">
            <mxPoint x="795" y="1980" as="sourcePoint" />
            <mxPoint x="1120" y="1980" as="targetPoint" />
          </mxGeometry>
        </mxCell>
        <mxCell id="P8a3TxcjCIMmVDjfXzvQ-113" value="" style="endArrow=none;html=1;rounded=0;" edge="1" parent="1">
          <mxGeometry width="50" height="50" relative="1" as="geometry">
            <mxPoint x="1120" y="1980" as="sourcePoint" />
            <mxPoint x="1120" y="1860" as="targetPoint" />
          </mxGeometry>
        </mxCell>
        <mxCell id="P8a3TxcjCIMmVDjfXzvQ-114" value="" style="endArrow=none;html=1;rounded=0;" edge="1" parent="1">
          <mxGeometry width="50" height="50" relative="1" as="geometry">
            <mxPoint x="1120" y="1860" as="sourcePoint" />
            <mxPoint x="1160" y="1860" as="targetPoint" />
          </mxGeometry>
        </mxCell>
        <mxCell id="P8a3TxcjCIMmVDjfXzvQ-115" value="" style="endArrow=classic;html=1;rounded=0;" edge="1" parent="1">
          <mxGeometry width="50" height="50" relative="1" as="geometry">
            <mxPoint x="1161.25" y="1860" as="sourcePoint" />
            <mxPoint x="1161.5" y="1890" as="targetPoint" />
          </mxGeometry>
        </mxCell>
        <mxCell id="P8a3TxcjCIMmVDjfXzvQ-116" value="stall" style="text;html=1;align=center;verticalAlign=middle;whiteSpace=wrap;rounded=0;" vertex="1" parent="1">
          <mxGeometry x="801" y="1955" width="60" height="30" as="geometry" />
        </mxCell>
        <mxCell id="P8a3TxcjCIMmVDjfXzvQ-117" value="" style="endArrow=none;html=1;rounded=0;" edge="1" parent="1">
          <mxGeometry width="50" height="50" relative="1" as="geometry">
            <mxPoint x="2520" y="1970" as="sourcePoint" />
            <mxPoint x="2610" y="1970" as="targetPoint" />
          </mxGeometry>
        </mxCell>
        <mxCell id="P8a3TxcjCIMmVDjfXzvQ-118" value="" style="endArrow=none;html=1;rounded=0;" edge="1" parent="1">
          <mxGeometry width="50" height="50" relative="1" as="geometry">
            <mxPoint x="2610" y="1970" as="sourcePoint" />
            <mxPoint x="2610" y="1870" as="targetPoint" />
          </mxGeometry>
        </mxCell>
        <mxCell id="P8a3TxcjCIMmVDjfXzvQ-119" value="" style="endArrow=none;html=1;rounded=0;" edge="1" parent="1">
          <mxGeometry width="50" height="50" relative="1" as="geometry">
            <mxPoint x="1190" y="1870" as="sourcePoint" />
            <mxPoint x="2610" y="1870" as="targetPoint" />
          </mxGeometry>
        </mxCell>
        <mxCell id="P8a3TxcjCIMmVDjfXzvQ-120" value="" style="endArrow=classic;html=1;rounded=0;" edge="1" parent="1">
          <mxGeometry width="50" height="50" relative="1" as="geometry">
            <mxPoint x="1190" y="1870" as="sourcePoint" />
            <mxPoint x="1190" y="1900" as="targetPoint" />
          </mxGeometry>
        </mxCell>
        <mxCell id="P8a3TxcjCIMmVDjfXzvQ-121" value="&lt;font style=&quot;font-size: 15px;&quot;&gt;Forwarding Unit&lt;/font&gt;" style="rounded=1;whiteSpace=wrap;html=1;" vertex="1" parent="1">
          <mxGeometry x="1930" y="2800" width="120" height="60" as="geometry" />
        </mxCell>
        <mxCell id="P8a3TxcjCIMmVDjfXzvQ-122" value="" style="endArrow=none;html=1;rounded=0;" edge="1" parent="1">
          <mxGeometry width="50" height="50" relative="1" as="geometry">
            <mxPoint x="2280" y="2810" as="sourcePoint" />
            <mxPoint x="2280" y="2720" as="targetPoint" />
          </mxGeometry>
        </mxCell>
        <mxCell id="P8a3TxcjCIMmVDjfXzvQ-124" value="" style="endArrow=classic;html=1;rounded=0;entryX=1.023;entryY=0.148;entryDx=0;entryDy=0;entryPerimeter=0;" edge="1" parent="1" target="P8a3TxcjCIMmVDjfXzvQ-121">
          <mxGeometry width="50" height="50" relative="1" as="geometry">
            <mxPoint x="2280" y="2810" as="sourcePoint" />
            <mxPoint x="2130" y="2810" as="targetPoint" />
          </mxGeometry>
        </mxCell>
        <mxCell id="P8a3TxcjCIMmVDjfXzvQ-125" value="" style="endArrow=classic;html=1;rounded=0;entryX=0.982;entryY=0.338;entryDx=0;entryDy=0;entryPerimeter=0;" edge="1" parent="1" target="P8a3TxcjCIMmVDjfXzvQ-121">
          <mxGeometry width="50" height="50" relative="1" as="geometry">
            <mxPoint x="2917" y="2821" as="sourcePoint" />
            <mxPoint x="2060" y="2820" as="targetPoint" />
          </mxGeometry>
        </mxCell>
        <mxCell id="P8a3TxcjCIMmVDjfXzvQ-126" value="" style="endArrow=none;html=1;rounded=0;" edge="1" parent="1">
          <mxGeometry width="50" height="50" relative="1" as="geometry">
            <mxPoint x="970" y="2800" as="sourcePoint" />
            <mxPoint x="970" y="2320" as="targetPoint" />
          </mxGeometry>
        </mxCell>
        <mxCell id="P8a3TxcjCIMmVDjfXzvQ-127" value="" style="endArrow=classic;html=1;rounded=0;entryX=0;entryY=0;entryDx=0;entryDy=0;" edge="1" parent="1" target="P8a3TxcjCIMmVDjfXzvQ-121">
          <mxGeometry width="50" height="50" relative="1" as="geometry">
            <mxPoint x="970" y="2800" as="sourcePoint" />
            <mxPoint x="1140" y="2800" as="targetPoint" />
          </mxGeometry>
        </mxCell>
        <mxCell id="P8a3TxcjCIMmVDjfXzvQ-129" value="" style="endArrow=none;html=1;rounded=0;" edge="1" parent="1">
          <mxGeometry width="50" height="50" relative="1" as="geometry">
            <mxPoint x="950" y="2830" as="sourcePoint" />
            <mxPoint x="950" y="2355" as="targetPoint" />
          </mxGeometry>
        </mxCell>
        <mxCell id="P8a3TxcjCIMmVDjfXzvQ-130" value="" style="endArrow=classic;html=1;rounded=0;entryX=0;entryY=0.5;entryDx=0;entryDy=0;" edge="1" parent="1" target="P8a3TxcjCIMmVDjfXzvQ-121">
          <mxGeometry width="50" height="50" relative="1" as="geometry">
            <mxPoint x="950" y="2830" as="sourcePoint" />
            <mxPoint x="1000" y="2780" as="targetPoint" />
          </mxGeometry>
        </mxCell>
        <mxCell id="P8a3TxcjCIMmVDjfXzvQ-131" value="" style="endArrow=classic;html=1;rounded=0;" edge="1" parent="1">
          <mxGeometry width="50" height="50" relative="1" as="geometry">
            <mxPoint x="1930" y="2840" as="sourcePoint" />
            <mxPoint x="1850" y="2840" as="targetPoint" />
          </mxGeometry>
        </mxCell>
        <mxCell id="P8a3TxcjCIMmVDjfXzvQ-132" value="ForwardA" style="text;html=1;align=center;verticalAlign=middle;whiteSpace=wrap;rounded=0;" vertex="1" parent="1">
          <mxGeometry x="1800" y="2820" width="60" height="30" as="geometry" />
        </mxCell>
        <mxCell id="P8a3TxcjCIMmVDjfXzvQ-134" value="" style="endArrow=classic;html=1;rounded=0;" edge="1" parent="1">
          <mxGeometry width="50" height="50" relative="1" as="geometry">
            <mxPoint x="1930" y="2852.14" as="sourcePoint" />
            <mxPoint x="1850" y="2852.14" as="targetPoint" />
          </mxGeometry>
        </mxCell>
        <mxCell id="P8a3TxcjCIMmVDjfXzvQ-135" value="ForwardB" style="text;html=1;align=center;verticalAlign=middle;whiteSpace=wrap;rounded=0;" vertex="1" parent="1">
          <mxGeometry x="1800" y="2837.5" width="60" height="30" as="geometry" />
        </mxCell>
        <mxCell id="P8a3TxcjCIMmVDjfXzvQ-136" value="" style="endArrow=none;html=1;rounded=0;" edge="1" parent="1">
          <mxGeometry width="50" height="50" relative="1" as="geometry">
            <mxPoint x="1510" y="3040" as="sourcePoint" />
            <mxPoint x="1500" y="2290" as="targetPoint" />
          </mxGeometry>
        </mxCell>
        <mxCell id="P8a3TxcjCIMmVDjfXzvQ-137" value="" style="endArrow=classic;html=1;rounded=0;entryX=0.07;entryY=0.854;entryDx=0;entryDy=0;entryPerimeter=0;" edge="1" parent="1" target="vtXWzLsRKn1HHXiiLrbu-189">
          <mxGeometry width="50" height="50" relative="1" as="geometry">
            <mxPoint x="1501.72" y="2290.18" as="sourcePoint" />
            <mxPoint x="1529.9999999999998" y="2290" as="targetPoint" />
          </mxGeometry>
        </mxCell>
        <mxCell id="P8a3TxcjCIMmVDjfXzvQ-138" value="" style="endArrow=classic;html=1;rounded=0;entryX=0.147;entryY=0.898;entryDx=0;entryDy=0;entryPerimeter=0;" edge="1" parent="1" target="vtXWzLsRKn1HHXiiLrbu-191">
          <mxGeometry width="50" height="50" relative="1" as="geometry">
            <mxPoint x="1500" y="2450" as="sourcePoint" />
            <mxPoint x="1550" y="2400" as="targetPoint" />
          </mxGeometry>
        </mxCell>
        <mxCell id="P8a3TxcjCIMmVDjfXzvQ-139" value="" style="endArrow=none;html=1;rounded=0;" edge="1" parent="1">
          <mxGeometry width="50" height="50" relative="1" as="geometry">
            <mxPoint x="1480" y="2520" as="sourcePoint" />
            <mxPoint x="1480" y="1795" as="targetPoint" />
          </mxGeometry>
        </mxCell>
        <mxCell id="P8a3TxcjCIMmVDjfXzvQ-140" value="" style="endArrow=classic;html=1;rounded=0;entryX=0.729;entryY=1;entryDx=0;entryDy=0;entryPerimeter=0;" edge="1" parent="1" target="vtXWzLsRKn1HHXiiLrbu-191">
          <mxGeometry width="50" height="50" relative="1" as="geometry">
            <mxPoint x="1480" y="2520" as="sourcePoint" />
            <mxPoint x="1530" y="2470" as="targetPoint" />
          </mxGeometry>
        </mxCell>
        <mxCell id="P8a3TxcjCIMmVDjfXzvQ-141" value="" style="endArrow=classic;html=1;rounded=0;entryX=0.813;entryY=1;entryDx=0;entryDy=0;entryPerimeter=0;" edge="1" parent="1" target="vtXWzLsRKn1HHXiiLrbu-189">
          <mxGeometry width="50" height="50" relative="1" as="geometry">
            <mxPoint x="1480" y="2380" as="sourcePoint" />
            <mxPoint x="1530" y="2330" as="targetPoint" />
          </mxGeometry>
        </mxCell>
        <mxCell id="P8a3TxcjCIMmVDjfXzvQ-142" value="" style="endArrow=none;html=1;rounded=0;" edge="1" parent="1">
          <mxGeometry width="50" height="50" relative="1" as="geometry">
            <mxPoint x="1210" y="2050" as="sourcePoint" />
            <mxPoint x="1340" y="2050" as="targetPoint" />
          </mxGeometry>
        </mxCell>
        <mxCell id="P8a3TxcjCIMmVDjfXzvQ-143" value="" style="endArrow=none;html=1;rounded=0;" edge="1" parent="1">
          <mxGeometry width="50" height="50" relative="1" as="geometry">
            <mxPoint x="1340" y="2090" as="sourcePoint" />
            <mxPoint x="1340" y="2000" as="targetPoint" />
          </mxGeometry>
        </mxCell>
        <mxCell id="P8a3TxcjCIMmVDjfXzvQ-144" value="" style="endArrow=classic;html=1;rounded=0;entryX=0;entryY=0.75;entryDx=0;entryDy=0;" edge="1" parent="1" target="vtXWzLsRKn1HHXiiLrbu-136">
          <mxGeometry width="50" height="50" relative="1" as="geometry">
            <mxPoint x="1340" y="2090" as="sourcePoint" />
            <mxPoint x="1390" y="2040" as="targetPoint" />
          </mxGeometry>
        </mxCell>
        <mxCell id="P8a3TxcjCIMmVDjfXzvQ-145" value="" style="endArrow=classic;html=1;rounded=0;entryX=0;entryY=0.75;entryDx=0;entryDy=0;" edge="1" parent="1">
          <mxGeometry width="50" height="50" relative="1" as="geometry">
            <mxPoint x="1340" y="2049.64" as="sourcePoint" />
            <mxPoint x="1390" y="2049.64" as="targetPoint" />
          </mxGeometry>
        </mxCell>
        <mxCell id="P8a3TxcjCIMmVDjfXzvQ-146" value="" style="endArrow=classic;html=1;rounded=0;entryX=0;entryY=0.75;entryDx=0;entryDy=0;" edge="1" parent="1">
          <mxGeometry width="50" height="50" relative="1" as="geometry">
            <mxPoint x="1340" y="2000" as="sourcePoint" />
            <mxPoint x="1390" y="2000" as="targetPoint" />
          </mxGeometry>
        </mxCell>
        <mxCell id="P8a3TxcjCIMmVDjfXzvQ-147" value="" style="endArrow=none;html=1;rounded=0;" edge="1" parent="1">
          <mxGeometry width="50" height="50" relative="1" as="geometry">
            <mxPoint x="1450" y="2000" as="sourcePoint" />
            <mxPoint x="1610" y="2000" as="targetPoint" />
          </mxGeometry>
        </mxCell>
        <mxCell id="P8a3TxcjCIMmVDjfXzvQ-148" value="" style="endArrow=none;html=1;rounded=0;" edge="1" parent="1">
          <mxGeometry width="50" height="50" relative="1" as="geometry">
            <mxPoint x="1612.5" y="2000" as="sourcePoint" />
            <mxPoint x="1612.5" y="1930" as="targetPoint" />
          </mxGeometry>
        </mxCell>
        <mxCell id="P8a3TxcjCIMmVDjfXzvQ-149" value="" style="endArrow=none;html=1;rounded=0;" edge="1" parent="1">
          <mxGeometry width="50" height="50" relative="1" as="geometry">
            <mxPoint x="1610" y="1930" as="sourcePoint" />
            <mxPoint x="2100" y="1930" as="targetPoint" />
          </mxGeometry>
        </mxCell>
        <mxCell id="P8a3TxcjCIMmVDjfXzvQ-150" value="" style="endArrow=none;html=1;rounded=0;" edge="1" parent="1">
          <mxGeometry width="50" height="50" relative="1" as="geometry">
            <mxPoint x="2100" y="2050" as="sourcePoint" />
            <mxPoint x="2100" y="1930" as="targetPoint" />
          </mxGeometry>
        </mxCell>
        <mxCell id="P8a3TxcjCIMmVDjfXzvQ-151" value="" style="endArrow=classic;html=1;rounded=0;" edge="1" parent="1">
          <mxGeometry width="50" height="50" relative="1" as="geometry">
            <mxPoint x="2100" y="2050" as="sourcePoint" />
            <mxPoint x="2160" y="2050" as="targetPoint" />
          </mxGeometry>
        </mxCell>
        <mxCell id="P8a3TxcjCIMmVDjfXzvQ-152" value="" style="endArrow=none;html=1;rounded=0;" edge="1" parent="1">
          <mxGeometry width="50" height="50" relative="1" as="geometry">
            <mxPoint x="1450" y="2039.52" as="sourcePoint" />
            <mxPoint x="1640" y="2040" as="targetPoint" />
          </mxGeometry>
        </mxCell>
        <mxCell id="P8a3TxcjCIMmVDjfXzvQ-153" value="" style="endArrow=none;html=1;rounded=0;" edge="1" parent="1">
          <mxGeometry width="50" height="50" relative="1" as="geometry">
            <mxPoint x="1640" y="2040" as="sourcePoint" />
            <mxPoint x="1640" y="1960" as="targetPoint" />
          </mxGeometry>
        </mxCell>
        <mxCell id="P8a3TxcjCIMmVDjfXzvQ-154" value="" style="endArrow=none;html=1;rounded=0;" edge="1" parent="1">
          <mxGeometry width="50" height="50" relative="1" as="geometry">
            <mxPoint x="1640" y="1960" as="sourcePoint" />
            <mxPoint x="2040" y="1960" as="targetPoint" />
          </mxGeometry>
        </mxCell>
        <mxCell id="P8a3TxcjCIMmVDjfXzvQ-155" value="" style="endArrow=none;html=1;rounded=0;" edge="1" parent="1">
          <mxGeometry width="50" height="50" relative="1" as="geometry">
            <mxPoint x="2040" y="2090" as="sourcePoint" />
            <mxPoint x="2040" y="1960" as="targetPoint" />
          </mxGeometry>
        </mxCell>
        <mxCell id="P8a3TxcjCIMmVDjfXzvQ-156" value="" style="endArrow=classic;html=1;rounded=0;" edge="1" parent="1">
          <mxGeometry width="50" height="50" relative="1" as="geometry">
            <mxPoint x="2040" y="2090" as="sourcePoint" />
            <mxPoint x="2160" y="2090" as="targetPoint" />
          </mxGeometry>
        </mxCell>
        <mxCell id="P8a3TxcjCIMmVDjfXzvQ-157" value="" style="endArrow=none;html=1;rounded=0;" edge="1" parent="1">
          <mxGeometry width="50" height="50" relative="1" as="geometry">
            <mxPoint x="1500" y="2040" as="sourcePoint" />
            <mxPoint x="1500" y="1758.8887532552083" as="targetPoint" />
          </mxGeometry>
        </mxCell>
        <mxCell id="P8a3TxcjCIMmVDjfXzvQ-158" value="" style="endArrow=none;html=1;rounded=0;" edge="1" parent="1">
          <mxGeometry width="50" height="50" relative="1" as="geometry">
            <mxPoint x="730" y="1760" as="sourcePoint" />
            <mxPoint x="1500" y="1760" as="targetPoint" />
          </mxGeometry>
        </mxCell>
        <mxCell id="P8a3TxcjCIMmVDjfXzvQ-159" value="" style="endArrow=classic;html=1;rounded=0;entryX=0.458;entryY=0;entryDx=0;entryDy=0;entryPerimeter=0;" edge="1" parent="1" target="P8a3TxcjCIMmVDjfXzvQ-101">
          <mxGeometry width="50" height="50" relative="1" as="geometry">
            <mxPoint x="730" y="1760" as="sourcePoint" />
            <mxPoint x="740" y="1880" as="targetPoint" />
          </mxGeometry>
        </mxCell>
        <mxCell id="P8a3TxcjCIMmVDjfXzvQ-160" value="" style="endArrow=none;html=1;rounded=0;" edge="1" parent="1">
          <mxGeometry width="50" height="50" relative="1" as="geometry">
            <mxPoint x="2225" y="2050" as="sourcePoint" />
            <mxPoint x="2590" y="2050" as="targetPoint" />
          </mxGeometry>
        </mxCell>
        <mxCell id="P8a3TxcjCIMmVDjfXzvQ-161" value="" style="endArrow=none;html=1;rounded=0;" edge="1" parent="1">
          <mxGeometry width="50" height="50" relative="1" as="geometry">
            <mxPoint x="2590" y="2100" as="sourcePoint" />
            <mxPoint x="2590" y="2050" as="targetPoint" />
          </mxGeometry>
        </mxCell>
        <mxCell id="P8a3TxcjCIMmVDjfXzvQ-162" value="" style="endArrow=classic;html=1;rounded=0;entryX=0;entryY=0.5;entryDx=0;entryDy=0;" edge="1" parent="1" target="vtXWzLsRKn1HHXiiLrbu-212">
          <mxGeometry width="50" height="50" relative="1" as="geometry">
            <mxPoint x="2590" y="2100" as="sourcePoint" />
            <mxPoint x="2640" y="2050" as="targetPoint" />
          </mxGeometry>
        </mxCell>
        <mxCell id="P8a3TxcjCIMmVDjfXzvQ-163" value="" style="endArrow=none;html=1;rounded=0;" edge="1" parent="1">
          <mxGeometry width="50" height="50" relative="1" as="geometry">
            <mxPoint x="2280" y="2670" as="sourcePoint" />
            <mxPoint x="2280" y="2050" as="targetPoint" />
          </mxGeometry>
        </mxCell>
        <mxCell id="P8a3TxcjCIMmVDjfXzvQ-164" value="" style="endArrow=none;html=1;rounded=0;" edge="1" parent="1">
          <mxGeometry width="50" height="50" relative="1" as="geometry">
            <mxPoint x="2280" y="2670" as="sourcePoint" />
            <mxPoint x="2380" y="2670" as="targetPoint" />
          </mxGeometry>
        </mxCell>
        <mxCell id="P8a3TxcjCIMmVDjfXzvQ-165" value="" style="endArrow=none;html=1;rounded=0;" edge="1" parent="1">
          <mxGeometry width="50" height="50" relative="1" as="geometry">
            <mxPoint x="2380" y="2840" as="sourcePoint" />
            <mxPoint x="2380" y="2670" as="targetPoint" />
          </mxGeometry>
        </mxCell>
        <mxCell id="P8a3TxcjCIMmVDjfXzvQ-167" value="" style="endArrow=classic;html=1;rounded=0;entryX=1.016;entryY=0.652;entryDx=0;entryDy=0;entryPerimeter=0;" edge="1" parent="1" target="P8a3TxcjCIMmVDjfXzvQ-121">
          <mxGeometry width="50" height="50" relative="1" as="geometry">
            <mxPoint x="2380" y="2839" as="sourcePoint" />
            <mxPoint x="2060" y="2840" as="targetPoint" />
          </mxGeometry>
        </mxCell>
        <mxCell id="P8a3TxcjCIMmVDjfXzvQ-168" value="" style="endArrow=none;html=1;rounded=0;" edge="1" parent="1">
          <mxGeometry width="50" height="50" relative="1" as="geometry">
            <mxPoint x="2715" y="2100" as="sourcePoint" />
            <mxPoint x="3350" y="2100" as="targetPoint" />
          </mxGeometry>
        </mxCell>
        <mxCell id="P8a3TxcjCIMmVDjfXzvQ-169" value="" style="endArrow=none;html=1;rounded=0;" edge="1" parent="1">
          <mxGeometry width="50" height="50" relative="1" as="geometry">
            <mxPoint x="3350" y="2850" as="sourcePoint" />
            <mxPoint x="3350" y="2100" as="targetPoint" />
          </mxGeometry>
        </mxCell>
        <mxCell id="P8a3TxcjCIMmVDjfXzvQ-170" value="" style="endArrow=classic;html=1;rounded=0;entryX=1;entryY=1;entryDx=0;entryDy=0;" edge="1" parent="1" target="P8a3TxcjCIMmVDjfXzvQ-121">
          <mxGeometry width="50" height="50" relative="1" as="geometry">
            <mxPoint x="3350" y="2850" as="sourcePoint" />
            <mxPoint x="3250" y="2850" as="targetPoint" />
          </mxGeometry>
        </mxCell>
        <mxCell id="P8a3TxcjCIMmVDjfXzvQ-171" value="" style="endArrow=classic;html=1;rounded=0;strokeColor=#1C30FF;" edge="1" parent="1">
          <mxGeometry width="50" height="50" relative="1" as="geometry">
            <mxPoint x="1552" y="2240" as="sourcePoint" />
            <mxPoint x="1551.94" y="2280" as="targetPoint" />
          </mxGeometry>
        </mxCell>
        <mxCell id="P8a3TxcjCIMmVDjfXzvQ-172" value="ForwardA" style="text;html=1;align=center;verticalAlign=middle;whiteSpace=wrap;rounded=0;fontColor=#1C30FF;" vertex="1" parent="1">
          <mxGeometry x="1520" y="2215" width="60" height="30" as="geometry" />
        </mxCell>
        <mxCell id="P8a3TxcjCIMmVDjfXzvQ-174" value="" style="endArrow=classic;html=1;rounded=0;strokeColor=#1C30FF;" edge="1" parent="1">
          <mxGeometry width="50" height="50" relative="1" as="geometry">
            <mxPoint x="1552.19" y="2590" as="sourcePoint" />
            <mxPoint x="1552.19" y="2550" as="targetPoint" />
          </mxGeometry>
        </mxCell>
        <mxCell id="P8a3TxcjCIMmVDjfXzvQ-175" value="ForwardB" style="text;html=1;align=center;verticalAlign=middle;whiteSpace=wrap;rounded=0;fontColor=#1C30FF;" vertex="1" parent="1">
          <mxGeometry x="1545" y="2580" width="60" height="30" as="geometry" />
        </mxCell>
        <mxCell id="P8a3TxcjCIMmVDjfXzvQ-176" value="" style="endArrow=classic;html=1;rounded=0;strokeColor=#1C30FF;" edge="1" parent="1">
          <mxGeometry width="50" height="50" relative="1" as="geometry">
            <mxPoint x="1770" y="2350" as="sourcePoint" />
            <mxPoint x="1769.94" y="2390" as="targetPoint" />
          </mxGeometry>
        </mxCell>
        <mxCell id="P8a3TxcjCIMmVDjfXzvQ-177" value="ALUSrc" style="text;html=1;align=center;verticalAlign=middle;whiteSpace=wrap;rounded=0;fontColor=#1C30FF;" vertex="1" parent="1">
          <mxGeometry x="1740" y="2330" width="60" height="30" as="geometry" />
        </mxCell>
        <mxCell id="P8a3TxcjCIMmVDjfXzvQ-178" value="" style="endArrow=classic;html=1;rounded=0;strokeColor=#1C30FF;" edge="1" parent="1">
          <mxGeometry width="50" height="50" relative="1" as="geometry">
            <mxPoint x="1794.75" y="2060" as="sourcePoint" />
            <mxPoint x="1794.69" y="2100" as="targetPoint" />
          </mxGeometry>
        </mxCell>
        <mxCell id="P8a3TxcjCIMmVDjfXzvQ-179" value="AUIPCCtrl" style="text;html=1;align=center;verticalAlign=middle;whiteSpace=wrap;rounded=0;fontColor=#1C30FF;" vertex="1" parent="1">
          <mxGeometry x="1765" y="2040" width="60" height="30" as="geometry" />
        </mxCell>
        <mxCell id="P8a3TxcjCIMmVDjfXzvQ-180" value="" style="endArrow=classic;html=1;rounded=0;fontColor=#1C30FF;strokeColor=#1C30FF;" edge="1" parent="1">
          <mxGeometry width="50" height="50" relative="1" as="geometry">
            <mxPoint x="2890" y="2480" as="sourcePoint" />
            <mxPoint x="2890" y="2452.5" as="targetPoint" />
          </mxGeometry>
        </mxCell>
        <mxCell id="P8a3TxcjCIMmVDjfXzvQ-181" value="MemtoReg" style="text;html=1;align=center;verticalAlign=middle;whiteSpace=wrap;rounded=0;fontColor=#1C30FF;" vertex="1" parent="1">
          <mxGeometry x="2860" y="2470" width="60" height="30" as="geometry" />
        </mxCell>
        <mxCell id="P8a3TxcjCIMmVDjfXzvQ-182" value="" style="endArrow=classic;html=1;rounded=0;strokeColor=#1C30FF;" edge="1" parent="1">
          <mxGeometry width="50" height="50" relative="1" as="geometry">
            <mxPoint x="690" y="2852" as="sourcePoint" />
            <mxPoint x="795" y="2851.79" as="targetPoint" />
          </mxGeometry>
        </mxCell>
        <mxCell id="P8a3TxcjCIMmVDjfXzvQ-183" value="!AUIPCCtrl &amp;amp; (!jal | !jalr) &amp;amp; !lui" style="text;html=1;align=center;verticalAlign=middle;whiteSpace=wrap;rounded=0;fontColor=#1C30FF;" vertex="1" parent="1">
          <mxGeometry x="620" y="2830" width="160" height="30" as="geometry" />
        </mxCell>
        <mxCell id="P8a3TxcjCIMmVDjfXzvQ-185" value="" style="endArrow=classic;html=1;rounded=0;strokeColor=#1C30FF;" edge="1" parent="1">
          <mxGeometry width="50" height="50" relative="1" as="geometry">
            <mxPoint x="434.62" y="1730" as="sourcePoint" />
            <mxPoint x="434.62" y="1770" as="targetPoint" />
          </mxGeometry>
        </mxCell>
        <mxCell id="P8a3TxcjCIMmVDjfXzvQ-186" value="&lt;div&gt;&lt;font style=&quot;color: rgb(28, 48, 255);&quot;&gt;!auipc &amp;amp; !jalr &amp;amp; (!Branch | !branch_out)&lt;/font&gt;&lt;/div&gt;&lt;div&gt;&lt;br&gt;&lt;/div&gt;" style="text;html=1;align=center;verticalAlign=middle;whiteSpace=wrap;rounded=0;" vertex="1" parent="1">
          <mxGeometry x="330" y="1720" width="220" height="30" as="geometry" />
        </mxCell>
      </root>
    </mxGraphModel>
  </diagram>
</mxfile>
